<svg width="486" height="205" viewBox="0 0 486 205" fill="none" xmlns="http://www.w3.org/2000/svg">
<path fill-rule="evenodd" clip-rule="evenodd" d="M0.617163 191.072L8.63866 149.017L14.6628 152.576C17.4942 154.249 21.3597 156.01 26.3527 157.831C31.3679 159.544 36.9163 161.027 43.008 162.272C48.9931 163.411 55.015 163.979 61.0777 163.979C71.0112 163.979 77.518 162.413 81.3469 159.987C84.6501 157.893 86.5855 154.53 86.5855 148.794C86.5855 144.772 85.4926 141.757 83.5575 139.413L83.5382 139.39L83.5192 139.366C81.3176 136.632 77.5732 133.659 71.9119 130.561L71.8986 130.554L71.8853 130.546C66.1455 127.359 58.6132 123.552 49.2579 119.117L49.2457 119.111L49.2335 119.106C40.9207 115.109 33.0953 110.355 25.7619 104.846C18.1932 99.1603 12.0216 92.3445 7.28706 84.412C2.37336 76.1794 0 66.678 0 56.0775C0 46.5381 1.84821 38.0416 5.75432 30.7647L5.75983 30.7544L5.76538 30.7442C9.67209 23.5489 15.034 17.6445 21.8118 13.0873C28.4726 8.52367 36.0989 5.21713 44.6274 3.12147L44.6393 3.11856C53.1694 1.04481 62.2356 0.0211945 71.82 0.0211945C85.3687 0.0211945 96.7919 1.28332 105.944 3.94706C114.523 6.44399 121.07 8.91537 125.074 11.4655L127.961 13.3043L118.734 54.4705L112.69 50.1261C109.201 47.6186 104.118 45.1965 97.2225 42.9679L97.1972 42.9597L97.1719 42.9513C90.6135 40.753 82.9626 39.6064 74.1497 39.6064C68.4058 39.6064 63.5871 40.2907 59.6133 41.5552C55.7652 42.8071 53.0975 44.5368 51.3035 46.5651L51.2788 46.5931L51.2536 46.6207C49.6445 48.3849 48.7713 50.5705 48.7713 53.5056C48.7713 57.4637 49.7126 60.5744 51.3867 63.065C53.292 65.6787 56.4873 68.5076 61.2984 71.4584C66.3015 74.4395 72.8769 77.9194 81.0637 81.9025C88.6896 85.4745 95.772 89.232 102.305 93.1782C108.957 97.1102 114.856 101.476 119.974 106.289C125.25 111.25 129.381 116.948 132.326 123.368C135.34 129.935 136.781 137.331 136.781 145.451C136.781 157.727 133.866 168.552 127.822 177.703L127.816 177.712L127.809 177.722C121.778 186.759 113.165 193.549 102.213 198.161C91.3685 202.764 78.6467 204.979 64.1839 204.979C55.0594 204.979 46.381 204.319 38.1563 202.987C30.0581 201.675 22.9609 200.085 16.8997 198.198C11.069 196.382 6.48349 194.611 3.52526 192.826L0.617163 191.072ZM58.7481 75.6239C53.5711 72.4519 49.7746 69.1942 47.3586 65.8507C45.029 62.4215 43.8641 58.3065 43.8641 53.5056C43.8641 49.4763 45.1153 46.09 47.6175 43.3466C50.1197 40.5176 53.6142 38.3743 58.1009 36.9169C62.674 35.4595 68.0235 34.7308 74.1497 34.7308C83.382 34.7308 91.579 35.931 98.7405 38.3314C103.589 39.8986 107.726 41.6032 111.15 43.4454C112.784 44.3242 114.256 45.2343 115.566 46.1757L122.425 15.5702C119.06 13.4269 113.107 11.1122 104.565 8.62608C96.0226 6.13991 85.1077 4.89682 71.82 4.89682C62.5877 4.89682 53.9162 5.88272 45.8055 7.8545C37.7812 9.82629 30.7059 12.9126 24.5798 17.1133C18.4536 21.2284 13.6218 26.5436 10.0841 33.0591C6.63279 39.4888 4.90712 47.1616 4.90712 56.0775C4.90712 65.9364 7.10735 74.5523 11.5078 81.9251C15.9083 89.2978 21.6461 95.6418 28.7214 100.957C35.7966 106.272 43.3465 110.859 51.3708 114.717C60.7757 119.175 68.4118 123.033 74.2791 126.29C80.2327 129.548 84.59 132.891 87.3511 136.321C90.1121 139.664 91.4927 143.822 91.4927 148.794C91.4927 155.824 88.9904 160.925 83.986 164.097C78.9816 167.269 71.3455 168.855 61.0777 168.855C54.6927 168.855 48.3509 168.255 42.0522 167.055C35.7535 165.769 29.9725 164.226 24.7092 162.425C21.704 161.331 19.0331 160.236 16.6967 159.141C15.0081 158.35 13.4942 157.558 12.1549 156.767L6.07195 188.659C8.48789 190.116 12.5864 191.745 18.3674 193.545C24.1484 195.346 31.0079 196.889 38.946 198.175C46.8841 199.461 55.2967 200.104 64.1839 200.104C78.1619 200.104 90.1984 197.96 100.294 193.674C110.475 189.387 118.284 183.172 123.72 175.028C129.155 166.798 131.873 156.939 131.873 145.451C131.873 137.907 130.536 131.22 127.861 125.39C125.186 119.56 121.433 114.374 116.601 109.83C111.769 105.286 106.161 101.129 99.7759 97.3564C93.3909 93.4986 86.4451 89.8122 78.9384 86.2973C70.6552 82.268 63.9251 78.7102 58.7481 75.6239ZM158.795 202.922V2.07871H285.998V42.1783H208.99V80.3929H267.361V119.85H208.99V162.179H294.152V202.922H158.795ZM204.083 167.055V114.974H262.453V85.2685H204.083V37.3027H281.091V6.95434H163.702V198.046H289.244V167.055H204.083ZM392.239 204.978L392.231 204.978C373 205.336 356.16 201.27 341.935 192.551L341.925 192.545L341.915 192.539C327.767 183.776 317.047 171.45 309.767 155.718L309.763 155.708C302.499 139.921 299.128 121.728 299.483 101.259L299.483 101.248C299.925 78.6883 304.257 59.7784 312.802 44.8044C321.267 29.8835 332.785 18.6725 347.342 11.3489C361.713 4.11924 377.897 0.377831 395.795 0.0221709L395.797 0.0221198C414.267 -0.335944 430.505 3.65016 444.292 12.1959C458.113 20.6232 468.612 32.6996 475.799 48.2389C483.083 63.7148 486.405 81.8018 485.961 102.348C485.518 124.884 481.367 143.908 473.225 159.178L473.219 159.189C465.129 174.273 454.029 185.719 439.908 193.33L439.897 193.336L439.886 193.342C425.911 200.784 409.988 204.622 392.239 204.978ZM481.055 102.243C481.486 82.268 478.251 64.9506 471.348 50.2908C464.532 35.5452 454.652 24.2289 441.71 16.3418C428.853 8.36889 413.581 4.55391 395.893 4.89682C378.636 5.23975 363.191 8.8404 349.559 15.6988C335.926 22.5572 325.097 33.0591 317.073 47.2045C309.049 61.2642 304.821 79.3103 304.389 101.343C304.044 121.232 307.323 138.678 314.226 153.681C321.128 168.598 331.223 180.171 344.511 188.401C357.799 196.546 373.675 200.447 392.14 200.104C409.224 199.761 424.367 196.074 437.568 189.044C450.769 181.929 461.21 171.213 468.889 156.896C476.568 142.493 480.623 124.276 481.055 102.243ZM430.193 68.8011L430.187 68.7831C427.129 59.51 422.6 52.4729 416.745 47.4106L416.731 47.3988L416.718 47.387C411.087 42.4466 403.965 39.8636 394.987 39.8636C386.881 39.8636 379.518 41.8637 372.797 45.8526C366.436 49.6768 361.069 55.9978 356.884 65.2732C352.787 74.3538 350.583 86.7952 350.583 102.886C350.583 115.037 352.288 125.891 355.622 135.504C358.926 145.032 363.754 152.408 369.992 157.846C375.972 162.975 383.497 165.651 392.916 165.651C405.817 165.651 415.778 160.731 423.285 150.76C430.795 140.785 434.99 124.492 434.99 100.957C434.99 88.8698 433.365 78.177 430.199 68.819L430.193 68.8011ZM370.267 41.6749C377.773 37.217 386.013 34.988 394.987 34.988C404.996 34.988 413.322 37.9028 419.966 43.7324C426.61 49.4763 431.571 57.3206 434.85 67.2653C438.215 77.2099 439.898 88.4405 439.898 100.957C439.898 124.876 435.67 142.45 427.214 153.681C418.758 164.912 407.326 170.527 392.916 170.527C382.476 170.527 373.761 167.526 366.772 161.525C359.783 155.438 354.52 147.294 350.982 137.092C347.445 126.89 345.676 115.488 345.676 102.886C345.676 86.4259 347.919 73.2235 352.406 63.2788C356.893 53.3342 362.846 46.1329 370.267 41.6749Z" fill="url(#paint0_linear_1222_673)"/>
<defs>
<linearGradient id="paint0_linear_1222_673" x1="58.7567" y1="116.823" x2="539.647" y2="114.224" gradientUnits="userSpaceOnUse">
<stop stop-color="#DDDDDD"/>
<stop offset="1" stop-color="#F2F2F4"/>
</linearGradient>
</defs>
</svg>
