<svg width="161" height="117" viewBox="0 0 161 117" fill="none" xmlns="http://www.w3.org/2000/svg">
<path d="M159.086 93.1313H1.91417C1.10609 93.1313 0.5 92.5252 0.5 91.7171V1.4141C0.5 0.606023 1.10609 0 1.91417 0H159.086C159.894 0 160.5 0.606023 160.5 1.4141V91.7171C160.298 92.5252 159.692 93.1313 159.086 93.1313ZM3.12624 90.505H157.672V2.82827H3.12624V90.505Z" fill="#B93839"/>
<path d="M153.026 78.5858H7.77354C6.96546 78.5858 6.35938 77.9797 6.35938 77.1716V7.47465C6.35938 6.66657 6.96546 6.06055 7.77354 6.06055H153.026C153.834 6.06055 154.44 6.66657 154.44 7.47465V77.1716C154.44 77.9797 153.834 78.5858 153.026 78.5858ZM9.18764 75.9595H151.814V8.88882H9.18764V75.9595Z" fill="#B93839"/>
<path d="M94.0334 104.445H66.5587C65.7506 104.445 65.1445 103.839 65.1445 103.031V91.7174C65.1445 90.9093 65.7506 90.3032 66.5587 90.3032H94.0334C94.8415 90.3032 95.4476 90.9093 95.4476 91.7174V103.031C95.4476 103.839 94.8415 104.445 94.0334 104.445ZM67.9728 101.818H92.8213V93.1316H67.9728V101.818Z" fill="#B93839"/>
<path d="M137.669 115.96C137.467 115.96 137.467 115.96 137.265 115.96L93.8309 104.647H66.7602L23.3258 115.96C22.7198 116.162 21.9117 115.758 21.7097 114.95C21.5077 114.344 21.9117 113.536 22.7198 113.334L66.3562 102.021C66.5582 102.021 66.5581 102.021 66.7602 102.021H94.2349C94.4369 102.021 94.437 102.021 94.639 102.021L138.275 113.334C138.881 113.536 139.487 114.142 139.285 114.95C138.881 115.556 138.275 115.96 137.669 115.96Z" fill="#B93839"/>
<path d="M141.509 88.2829C139.489 88.2829 137.873 86.6668 137.873 84.6466C137.873 82.6264 139.489 81.0103 141.509 81.0103C143.53 81.0103 145.146 82.6264 145.146 84.6466C145.146 86.6668 143.53 88.2829 141.509 88.2829ZM141.509 83.4345C140.903 83.4345 140.499 83.8385 140.499 84.4446C140.499 85.0506 140.903 85.4547 141.509 85.4547C142.115 85.4547 142.519 85.0506 142.519 84.4446C142.519 84.0405 142.115 83.4345 141.509 83.4345Z" fill="#B93839"/>
<path d="M70.1974 85.8585H64.1368C63.3287 85.8585 62.7227 85.2525 62.7227 84.4444C62.7227 83.6363 63.3287 83.0303 64.1368 83.0303H70.1974C71.0055 83.0303 71.6116 83.6363 71.6116 84.4444C71.4096 85.2525 71.0055 85.8585 70.1974 85.8585Z" fill="#B93839"/>
<path d="M83.5314 85.8585H77.4708C76.6627 85.8585 76.0566 85.2525 76.0566 84.4444C76.0566 83.6363 76.6627 83.0303 77.4708 83.0303H83.5314C84.3395 83.0303 84.9455 83.6363 84.9455 84.4444C84.7435 85.2525 84.1375 85.8585 83.5314 85.8585Z" fill="#B93839"/>
<path d="M96.6623 85.8585H90.6017C89.7936 85.8585 89.1875 85.2525 89.1875 84.4444C89.1875 83.6363 89.7936 83.0303 90.6017 83.0303H96.6623C97.4704 83.0303 98.0764 83.6363 98.0764 84.4444C98.0764 85.2525 97.4704 85.8585 96.6623 85.8585Z" fill="#B93839"/>
<path d="M120.904 70.9083H39.8934C34.6409 70.9083 30.3984 66.6659 30.3984 61.4133V23.6355C30.3984 18.383 34.6409 14.1406 39.8934 14.1406H120.904C126.156 14.1406 130.398 18.383 130.398 23.6355V61.4133C130.398 66.6659 126.156 70.9083 120.904 70.9083ZM39.8934 16.7669C36.055 16.7669 33.0247 19.7972 33.0247 23.6355V61.4133C33.0247 65.2517 36.055 68.282 39.8934 68.282H120.904C124.742 68.282 127.772 65.2517 127.772 61.4133V23.6355C127.772 19.7972 124.742 16.7669 120.904 16.7669H39.8934Z" fill="#B93839"/>
<path d="M129.186 37.5756H31.8126C31.0045 37.5756 30.3984 36.9695 30.3984 36.1614V23.4342C30.3984 22.6261 31.0045 22.02 31.8126 22.02H129.186C129.994 22.02 130.6 22.6261 130.6 23.4342V36.1614C130.398 36.9695 129.792 37.5756 129.186 37.5756ZM33.0247 34.9493H127.772V24.8483H33.0247V34.9493Z" fill="#B93839"/>
<path d="M103.937 49.8986H57.0685C56.2604 49.8986 55.6543 49.2926 55.6543 48.4845C55.6543 47.6764 56.2604 47.0703 57.0685 47.0703H103.937C104.745 47.0703 105.351 47.6764 105.351 48.4845C105.149 49.2926 104.543 49.8986 103.937 49.8986Z" fill="#B93839"/>
<path d="M120.3 61.8181H94.4415C93.6334 61.8181 93.0273 61.212 93.0273 60.4039C93.0273 59.5958 93.6334 58.9897 94.4415 58.9897H120.502C121.31 58.9897 121.916 59.5958 121.916 60.4039C121.916 61.212 121.108 61.8181 120.3 61.8181Z" fill="#B93839"/>
</svg>
