<svg width="102" height="130" viewBox="0 0 102 130" fill="none" xmlns="http://www.w3.org/2000/svg">
<path d="M50.6713 129.489C35.7742 129.489 23.6602 117.375 23.6602 102.478C23.6602 87.5809 35.7742 75.4668 50.6713 75.4668C65.5684 75.4668 77.6824 87.5809 77.6824 102.478C77.6824 117.211 65.5684 129.489 50.6713 129.489ZM50.6713 77.4313C36.9202 77.4313 25.7883 88.5631 25.7883 102.314C25.7883 116.065 36.9202 127.197 50.6713 127.197C64.4224 127.197 75.5543 116.065 75.5543 102.314C75.5543 88.5631 64.4224 77.4313 50.6713 77.4313Z" fill="#B93839"/>
<path d="M50.6716 120.65C48.5435 120.65 46.4153 120.159 44.7783 119.341C43.4687 118.686 42.3227 117.54 41.5042 116.23C40.522 114.757 40.0309 113.12 39.8672 110.992C39.8672 110.337 40.1946 109.846 40.8494 109.846C41.5042 109.846 41.9953 110.173 41.9953 110.828C42.159 112.465 42.4864 113.938 43.3049 115.084C43.9597 116.23 44.7783 117.049 45.7605 117.54C49.0346 119.177 54.2731 119.177 57.0561 116.23C58.3657 114.757 59.1842 112.956 59.1842 110.828C59.1842 109.846 59.0205 108.864 58.6931 108.045C58.3657 107.227 57.8746 106.572 57.3835 105.917C56.7287 105.262 55.9101 104.771 54.9279 104.28C53.4546 103.625 52.1449 103.298 50.6716 102.97C48.7072 102.479 46.579 101.824 44.4509 100.678C43.1412 100.024 42.159 98.8776 41.3405 97.568C40.6857 96.2584 40.3583 94.7851 40.3583 93.148C40.3583 90.3651 41.3405 87.9095 43.4686 86.1087C45.1057 84.6354 47.5613 83.8169 50.3442 83.8169C53.1272 83.8169 55.5827 84.6354 57.2198 85.945C59.0205 87.4184 60.0028 89.3828 60.3302 92.0021C60.3302 92.6569 60.0028 93.148 59.3479 93.148C58.8568 93.3117 58.202 92.8206 58.202 92.1658C57.8746 90.2014 57.0561 88.5643 55.7464 87.4184C54.4368 86.4362 52.4724 85.7814 50.3442 85.7814C48.0524 85.7814 46.0879 86.4361 44.7783 87.5821C43.1413 88.8917 42.4864 90.6925 42.4864 92.9843C42.4864 94.294 42.8138 95.2762 43.3049 96.2584C43.796 97.2406 44.6146 97.8954 45.4331 98.3865C47.3976 99.5325 49.1983 100.024 51.1627 100.515C52.6361 100.842 54.1094 101.333 55.5827 101.988C56.7286 102.479 57.8746 103.134 58.6931 103.952C59.5117 104.771 60.1664 105.753 60.4938 106.735C60.985 107.881 61.1487 109.027 61.1487 110.173C61.1487 112.956 60.3302 115.248 58.5294 117.049C56.565 119.832 53.6183 120.65 50.6716 120.65Z" fill="#B93839"/>
<path d="M50.5092 124.251C49.8544 124.251 49.3633 123.76 49.3633 123.105V81.5244C49.3633 80.8695 49.8544 80.3784 50.5092 80.3784C51.164 80.3784 51.6551 80.8695 51.6551 81.5244V123.105C51.6551 123.76 51.164 124.251 50.5092 124.251Z" fill="#B93839"/>
<path d="M50.6713 54.0223C35.7742 54.0223 23.6602 41.9082 23.6602 27.0111C23.6602 12.1141 35.7742 0 50.6713 0C65.5684 0 77.6824 12.1141 77.6824 27.0111C77.6824 41.9082 65.5684 54.0223 50.6713 54.0223ZM50.6713 2.12818C36.9202 2.12818 25.7883 13.26 25.7883 27.0111C25.7883 40.7623 36.9202 51.8942 50.6713 51.8942C64.4224 51.8942 75.5543 40.7623 75.5543 27.0111C75.5543 13.26 64.4224 2.12818 50.6713 2.12818Z" fill="#B93839"/>
<path d="M61.3119 25.3744H35.4467C34.7919 25.3744 34.3008 24.8833 34.3008 24.2285C34.3008 23.5737 34.7919 23.0825 35.4467 23.0825H61.3119C61.9667 23.0825 62.4579 23.5737 62.4579 24.2285C62.2942 24.8833 61.9667 25.3744 61.3119 25.3744Z" fill="#B93839"/>
<path d="M61.3119 31.1039H35.4467C34.7919 31.1039 34.3008 30.6128 34.3008 29.958C34.3008 29.3031 34.7919 28.812 35.4467 28.812H61.3119C61.9667 28.812 62.4579 29.3031 62.4579 29.958C62.2942 30.6128 61.9667 31.1039 61.3119 31.1039Z" fill="#B93839"/>
<path d="M58.0372 42.8906H53.2898C44.6135 42.8906 37.5742 35.8514 37.5742 27.1751C37.5742 18.4988 44.6135 11.4595 53.2898 11.4595H58.0372C58.692 11.4595 59.1832 11.9506 59.1832 12.6054C59.1832 13.2602 58.692 13.7514 58.0372 13.7514H53.2898C45.7594 13.7514 39.7024 19.8084 39.7024 27.3388C39.7024 34.8692 45.7594 40.9262 53.2898 40.9262H58.0372C58.692 40.9262 59.1832 41.4173 59.1832 42.0721C59.0194 42.3995 58.5283 42.8906 58.0372 42.8906Z" fill="#B93839"/>
<path d="M24.6442 104.443C24.4805 104.443 24.3168 104.443 24.1531 104.279C21.5338 102.642 19.0783 100.842 16.7864 98.8772C16.2953 98.5498 16.2953 97.8949 16.6227 97.4038C16.9501 96.9127 17.7686 96.9128 18.096 97.2402C20.2242 99.2046 22.6798 100.842 25.1353 102.315C25.6264 102.642 25.7901 103.297 25.4627 103.788C25.299 104.279 24.9716 104.443 24.6442 104.443ZM12.3664 93.9661C12.039 93.9661 11.7116 93.8024 11.5479 93.6387C10.2382 92.1653 9.256 90.5283 8.11007 89.055C7.78266 88.5639 7.94639 87.909 8.4375 87.5816C8.92861 87.2542 9.58341 87.4179 9.91082 87.909C10.893 89.3824 11.8753 90.8557 13.1849 92.3291C13.5123 92.8202 13.5123 93.475 13.0212 93.8024C12.8575 93.9661 12.6938 93.9661 12.3664 93.9661ZM5.98194 83.9801C5.65453 83.9801 5.16341 83.8164 4.9997 83.3253C4.01748 81.3609 3.36268 79.3964 2.70786 77.432C2.54416 76.9409 2.87155 76.286 3.36267 76.1223C3.85378 75.9586 4.50862 76.2861 4.67233 76.7772C5.32714 78.7416 5.98194 80.7061 6.80046 82.5068C7.12787 82.9979 6.80048 83.6527 6.30937 83.9801C6.30937 83.9801 6.14564 83.9801 5.98194 83.9801ZM2.38043 72.8482C1.88932 72.8482 1.39825 72.5208 1.39825 72.0297C1.07084 70.3927 0.907097 68.7557 0.743393 67.2823C0.743393 66.6275 1.07081 66.1364 1.72563 66.1364C2.21674 66.1364 2.87157 66.4638 2.87157 67.1186C3.03528 68.5919 3.19897 70.229 3.52638 71.7023C3.69008 72.3572 3.19897 72.8483 2.70786 73.012C2.54416 72.8483 2.54414 72.8482 2.38043 72.8482ZM1.56191 64.172C0.907097 64.172 0.416016 63.6808 0.416016 63.026C0.416016 61.389 0.57969 59.5883 0.743393 57.9512C0.743393 57.2964 1.39823 56.969 1.88934 56.969C2.54416 56.969 2.87157 57.6238 2.87157 58.1149C2.70787 59.7519 2.54415 61.389 2.54415 63.026C2.70785 63.6808 2.21673 64.172 1.56191 64.172ZM3.03529 52.7127C2.87158 52.7127 2.87156 52.7127 2.70786 52.7127C2.21675 52.549 1.72564 52.0579 1.88934 51.4031C2.38045 49.2749 3.03529 47.1467 3.85381 45.1823C4.01751 44.6912 4.67231 44.3638 5.16342 44.5275C5.65453 44.6912 5.98193 45.346 5.81822 45.8371C4.9997 47.8016 4.34492 49.766 3.85381 51.7305C3.85381 52.3853 3.5264 52.7127 3.03529 52.7127ZM7.45526 41.4171C7.29156 41.4171 7.12788 41.4171 6.96417 41.2534C6.47306 40.926 6.30933 40.2712 6.47303 39.7801C7.45525 37.9793 8.43752 36.3423 9.58344 34.869C9.91085 34.3779 10.5657 34.2141 11.0568 34.7053C11.5479 35.0327 11.7116 35.6875 11.2205 36.1786C10.2383 37.6519 9.0923 39.2889 8.27378 40.926C8.11008 41.2534 7.78267 41.4171 7.45526 41.4171ZM14.1671 32.086C13.8397 32.086 13.676 31.9223 13.5123 31.7586C13.0212 31.4312 13.0212 30.6126 13.5123 30.2852C14.6583 29.1393 15.8042 27.8297 17.2775 26.6838C17.7686 26.3564 18.4234 26.3564 18.7508 26.8475C19.0782 27.3386 19.0783 27.9934 18.5872 28.3208C17.2775 29.4667 16.1316 30.6127 14.9857 31.7586C14.8219 31.9223 14.4945 32.086 14.1671 32.086ZM21.3701 25.8653C21.0427 25.8653 20.7153 25.7015 20.5516 25.3741C20.2242 24.883 20.3879 24.2282 20.879 23.9008C22.0249 23.0823 23.3345 22.2638 24.6442 21.4452C25.1353 21.1178 25.7901 21.2815 26.1175 21.7727C26.4449 22.2638 26.2812 22.9186 25.7901 23.246C24.6442 23.9008 23.4982 24.7193 22.1886 25.5378C21.8612 25.7015 21.5338 25.8653 21.3701 25.8653Z" fill="#B93839"/>
<path d="M77.5191 104.443C77.1916 104.443 76.8642 104.28 76.5368 103.952C76.2094 103.461 76.3731 102.806 76.8642 102.479C79.3198 101.006 81.7753 99.2049 83.9035 97.4042C84.3946 97.0768 85.0494 97.0768 85.3768 97.5679C85.7042 98.059 85.7042 98.7138 85.2131 99.0412C82.9213 101.006 80.4657 102.806 77.8464 104.443C78.0101 104.443 77.6828 104.443 77.5191 104.443ZM89.7968 93.9665C89.6331 93.9665 89.3057 93.9664 89.142 93.639C88.6509 93.3116 88.6509 92.6568 88.9783 92.1657C90.1243 90.6924 91.2702 89.219 92.2524 87.7457C92.5798 87.2546 93.2346 87.0909 93.7257 87.4183C94.2168 87.7457 94.3805 88.4005 94.0531 88.8916C93.0709 90.5287 91.925 92.002 90.6154 93.4753C90.4517 93.9664 90.1243 93.9665 89.7968 93.9665ZM96.1813 83.9805C96.0176 83.9805 95.8539 83.9805 95.6901 83.8168C95.199 83.4894 94.8716 82.9983 95.1991 82.3435C96.0176 80.5427 96.8361 78.5783 97.3272 76.6138C97.4909 76.1227 98.1457 75.7953 98.6369 75.959C99.128 76.1227 99.4554 76.7775 99.2917 77.2686C98.6368 79.3968 97.8183 81.3612 96.9998 83.162C96.9998 83.8168 96.5087 83.9805 96.1813 83.9805ZM99.7827 72.8486H99.6191C98.9643 72.6849 98.6369 72.1938 98.8006 71.539C99.128 69.902 99.2917 68.4286 99.4554 66.9553C99.4554 66.3005 99.9465 65.9731 100.601 65.9731C101.256 65.9731 101.583 66.4641 101.583 67.119C101.42 68.756 101.256 70.2294 100.929 71.8664C100.765 72.3575 100.274 72.8486 99.7827 72.8486ZM100.601 64.1723C99.9465 64.1723 99.4554 63.6812 99.4554 63.0264C99.4554 61.3893 99.2916 59.7523 99.1279 58.1152C99.1279 57.4604 99.4554 56.9694 100.11 56.9694C100.765 56.9694 101.256 57.2968 101.256 57.9516C101.42 59.7523 101.583 61.3893 101.583 63.0264C101.583 63.6812 101.092 64.1723 100.601 64.1723ZM99.1279 52.713C98.6368 52.713 98.1457 52.3856 98.1457 51.8945C97.6546 49.7664 96.9998 47.8019 96.1813 46.0012C96.0176 45.5101 96.1813 44.8553 96.8361 44.6916C97.3272 44.5279 97.982 44.6915 98.1457 45.3464C98.9642 47.3108 99.6191 49.4389 100.11 51.5671C100.274 52.0582 99.9465 52.713 99.2917 52.8768C99.2917 52.713 99.2916 52.713 99.1279 52.713ZM94.708 41.4175C94.3806 41.4175 93.8894 41.2537 93.7257 40.9263C92.7435 39.2893 91.7613 37.6523 90.779 36.1789C90.4516 35.6878 90.6153 35.033 90.9427 34.7056C91.4339 34.3782 92.0887 34.5419 92.4161 34.8693C93.562 36.5064 94.5443 38.1434 95.5265 39.7804C95.8539 40.2716 95.6902 40.9264 95.0353 41.2538C95.0353 41.4175 94.8717 41.4175 94.708 41.4175ZM87.9961 32.0863C87.6687 32.0863 87.505 31.9227 87.1776 31.759C86.0316 30.613 84.8857 29.4671 83.5761 28.3212C83.085 27.9938 83.0849 27.339 83.4124 26.8478C83.7398 26.3567 84.3946 26.3567 84.8857 26.6841C86.1954 27.8301 87.505 29.1397 88.6509 30.2856C88.9783 30.7767 88.9783 31.4316 88.6509 31.759C88.4872 31.9227 88.1598 32.0863 87.9961 32.0863ZM80.7931 25.8656C80.6294 25.8656 80.302 25.8656 80.1383 25.7019C78.9924 24.8834 77.6827 24.0649 76.5368 23.41C76.0457 23.0826 75.882 22.4278 76.2094 21.9367C76.5368 21.4456 77.1916 21.2819 77.6827 21.6093C78.8286 22.2641 80.1383 23.0826 81.4479 24.0649C81.9391 24.3923 82.1027 25.0471 81.7753 25.5382C81.4479 25.7019 81.1205 25.8656 80.7931 25.8656Z" fill="#B93839"/>
</svg>
