<svg width="71" height="120" viewBox="0 0 71 120" fill="none" xmlns="http://www.w3.org/2000/svg">
<path d="M57.3898 119.006H13.4583C6.38709 119.006 0.669922 113.289 0.669922 106.218V12.7883C0.669922 5.71712 6.38709 0 13.4583 0H57.3898C64.461 0 70.1781 5.71712 70.1781 12.7883V106.218C70.1781 113.289 64.461 119.006 57.3898 119.006ZM13.6087 1.95589C7.59066 1.95589 2.77622 6.77028 2.77622 12.7883V106.218C2.77622 112.236 7.59066 117.051 13.6087 117.051H57.5403C63.5583 117.051 68.3727 112.236 68.3727 106.218V12.7883C68.3727 6.77028 63.5583 1.95589 57.5403 1.95589H13.6087Z" fill="#B93839"/>
<path d="M69.2754 15.1957H1.72309C1.12129 15.1957 0.669922 14.7443 0.669922 14.1425C0.669922 13.5407 1.12129 13.0894 1.72309 13.0894H69.2754C69.8772 13.0894 70.3286 13.5407 70.3286 14.1425C70.1781 14.7443 69.7268 15.1957 69.2754 15.1957Z" fill="#B93839"/>
<path d="M69.2754 102.607H1.72309C1.12129 102.607 0.669922 102.156 0.669922 101.554C0.669922 100.952 1.12129 100.501 1.72309 100.501H69.2754C69.8772 100.501 70.3286 100.952 70.3286 101.554C70.1781 102.156 69.7268 102.607 69.2754 102.607Z" fill="#B93839"/>
<path d="M44.1498 113.74H26.9985C26.3967 113.74 25.9453 113.289 25.9453 112.687V106.82C25.9453 106.218 26.3967 105.767 26.9985 105.767H44.1498C44.7516 105.767 45.203 106.218 45.203 106.82V112.687C45.0525 113.289 44.6012 113.74 44.1498 113.74ZM27.9012 111.785H43.0966V107.873H27.9012V111.785Z" fill="#B93839"/>
<path d="M43.8507 9.02671H27.3011C26.6993 9.02671 26.248 8.57539 26.248 7.97358C26.248 7.37178 26.6993 6.92041 27.3011 6.92041H43.8507C44.4525 6.92041 44.9039 7.37178 44.9039 7.97358C44.7534 8.57539 44.302 9.02671 43.8507 9.02671Z" fill="#B93839"/>
<path d="M35.5744 83.3494C21.8833 83.3494 10.75 72.216 10.75 58.525C10.75 44.834 21.8833 33.7007 35.5744 33.7007C49.2654 33.7007 60.3987 44.834 60.3987 58.525C60.2483 72.216 49.1149 83.3494 35.5744 83.3494ZM35.5744 35.807C22.9365 35.807 12.7059 46.0376 12.7059 58.6754C12.7059 71.3133 22.9365 81.544 35.5744 81.544C48.2122 81.544 58.4429 71.3133 58.4429 58.6754C58.2924 46.0376 48.0618 35.807 35.5744 35.807Z" fill="#B93839"/>
<path d="M35.5703 75.3757C33.6145 75.3757 31.6586 74.9243 30.1541 74.1721C28.9505 73.5703 28.0478 72.6676 27.1451 71.3135C26.3929 69.9595 25.7911 68.4549 25.6406 66.4991C25.6406 65.8973 25.9415 65.4459 26.5433 65.4459C27.1451 65.4459 27.5965 65.7468 27.5965 66.3486C27.7469 67.8531 28.0478 69.2072 28.8001 70.2604C29.4019 71.3135 30.1541 72.0658 31.0568 72.5171C34.0658 74.0216 38.8803 74.0216 41.4379 71.3135C42.6415 69.9595 43.3938 68.3045 43.3938 66.3486C43.3938 65.4459 43.2433 64.6937 42.9424 63.791C42.6415 63.0387 42.1902 62.4369 41.7389 61.8351C41.1371 61.2333 40.3848 60.782 39.6325 60.3306C38.4289 59.7288 37.0749 59.4279 35.8712 59.127C34.0658 58.6757 32.2605 58.2243 30.1541 57.0207C28.9505 56.4189 28.0478 55.3657 27.2955 54.1621C26.6937 52.9585 26.3929 51.6045 26.3929 50.2504C26.3929 47.6928 27.2956 45.436 29.2515 43.9315C30.756 42.5774 33.0127 41.8252 35.5703 41.8252C35.5703 41.8252 35.5704 41.8252 35.7208 41.8252C38.128 41.8252 40.3848 42.5774 41.8893 43.781C43.5442 45.1351 44.447 46.9405 44.7479 49.3477C44.7479 49.9495 44.4469 50.4009 43.8451 50.4009C43.2433 50.5513 42.792 50.1 42.792 49.4982C42.4911 47.6928 41.7389 46.1882 40.5353 45.2855C39.3317 44.3828 37.5262 43.781 35.5703 43.781C33.464 43.781 31.6587 44.3828 30.4551 45.2855C28.9506 46.4891 28.3487 48.1441 28.3487 50.2504C28.3487 51.454 28.6496 52.3567 29.101 53.2595C29.5523 54.1622 30.3046 54.7639 31.0568 55.2153C32.8622 56.2684 34.5172 56.7198 36.3226 57.1711C37.6766 57.472 39.0307 57.9234 40.3848 58.5252C41.4379 58.9766 42.4911 59.5783 43.0929 60.3306C43.8451 61.0829 44.447 61.9856 44.7479 62.8883C45.1992 63.9414 45.3496 64.9946 45.3496 66.0478C45.3496 68.6054 44.5974 70.7117 42.9424 72.3667C40.9866 74.473 38.2784 75.3757 35.5703 75.3757Z" fill="#B93839"/>
<path d="M35.5726 78.5351C34.9708 78.5351 34.5195 78.0837 34.5195 77.4819V39.4179C34.5195 38.8161 34.9708 38.3647 35.5726 38.3647C36.1744 38.3647 36.6258 38.8161 36.6258 39.4179V77.4819C36.4753 78.0837 36.024 78.5351 35.5726 78.5351Z" fill="#B93839"/>
</svg>
