<svg width="12" height="12" viewBox="0 0 12 12" fill="none" xmlns="http://www.w3.org/2000/svg">
<path fill-rule="evenodd" clip-rule="evenodd" d="M1.04999 10.9506C0.956227 10.8569 0.903548 10.7297 0.903548 10.5971C0.903548 10.4645 0.956227 10.3373 1.04999 10.2435L9.38891 1.90461L4.93908 1.90532C4.80631 1.90532 4.67897 1.85257 4.58508 1.75869C4.4912 1.6648 4.43845 1.53746 4.43845 1.40469C4.43845 1.27191 4.4912 1.14457 4.58508 1.05069C4.67897 0.956802 4.80631 0.904057 4.93908 0.904057H10.5959C10.6617 0.903974 10.7268 0.916867 10.7876 0.941996C10.8484 0.967126 10.9036 1.004 10.9501 1.0505C10.9966 1.09701 11.0335 1.15223 11.0586 1.21301C11.0838 1.27378 11.0967 1.33892 11.0966 1.40469L11.0966 7.06154C11.0966 7.19432 11.0438 7.32166 10.9499 7.41554C10.856 7.50943 10.7287 7.56217 10.5959 7.56217C10.4632 7.56217 10.3358 7.50943 10.2419 7.41554C10.148 7.32166 10.0953 7.19432 10.0953 7.06154L10.096 2.61172L1.7571 10.9506C1.66333 11.0444 1.53616 11.0971 1.40355 11.0971C1.27094 11.0971 1.14376 11.0444 1.04999 10.9506Z" fill="black"/>
</svg>
