<svg width="224" height="42" viewBox="0 0 224 42" fill="none" xmlns="http://www.w3.org/2000/svg">
<g clip-path="url(#clip0_626_366)">
<path d="M151.731 37.8907L146.129 37.936L141.984 29.4839C141.997 29.4745 142.012 29.4651 142.025 29.4574C142.106 29.4407 142.185 29.4227 142.264 29.4034C143.933 29.0038 145.39 28.1827 146.402 27.1036L151.731 37.8907Z" fill="black"/>
<path d="M151.503 23.1137C152.525 19.0532 151.489 14.677 148.813 11.3272C147.942 10.2391 146.075 8.84596 144.871 8.02102L145.864 5.07599C149.675 7.26883 152.033 10.8852 152.742 14.8113C153.241 17.5886 152.874 20.4986 151.503 23.1137Z" fill="black"/>
<path d="M147.741 20.7181C147.649 21.3415 147.482 21.9298 147.257 22.4869C146.284 24.8534 144.167 26.5414 141.695 26.9585C140.951 27.0886 140.179 27.0985 139.391 26.9787C135.381 26.3681 132.618 22.5754 133.22 18.5072C133.566 16.1672 134.946 14.2512 136.821 13.1631C138.209 12.3489 139.867 11.9873 141.571 12.2466C142.431 12.3776 143.229 12.6557 143.953 13.0497C146.607 14.4908 148.214 17.5223 147.741 20.7181Z" fill="#B22B2B"/>
<path d="M132.519 31.5511C132.519 31.5511 132.392 31.6247 132.206 31.7342L132.822 30.122L133.296 28.8854L142.333 5.10266C139.964 5.44581 139.625 5.61782 138.779 5.78939C137.452 6.05852 136.659 6.25877 135.395 6.47613L128.728 24.2443L127.942 26.3101L121.964 42.0001L126.339 40.5693L129.349 39.5908C129.658 38.2994 130.159 37.0963 130.814 36.0095C132.83 32.6687 136.309 30.4181 140.216 30.0347C137.455 29.6697 134.78 30.258 132.519 31.5511Z" fill="black"/>
<path d="M3.56152 38V8.76337H20.3637V11.9113H7.65387V21.3749H17.019V24.4835H7.65387V34.793H21.741V38H3.56152ZM39.071 38.3148C37.7987 38.3148 36.5986 38.2164 35.4705 38.0197C34.3425 37.836 33.3653 37.6131 32.539 37.3507C31.7258 37.0884 31.1421 36.8392 30.788 36.6031L31.6733 33.2781C32.1849 33.5666 32.821 33.8486 33.5818 34.1241C34.3556 34.3995 35.1951 34.6291 36.1001 34.8127C37.0052 34.9832 37.9168 35.0685 38.8349 35.0685C40.7237 35.0685 42.1862 34.734 43.2224 34.0651C44.2586 33.3961 44.7767 32.3271 44.7767 30.8581C44.7767 29.8612 44.5143 29.0349 43.9897 28.3791C43.4781 27.7101 42.7305 27.0936 41.7468 26.5296C40.7761 25.9656 39.5957 25.3623 38.2053 24.7196C36.9724 24.1293 35.7853 23.4276 34.6442 22.6144C33.5031 21.788 32.5652 20.824 31.8307 19.7222C31.1093 18.6073 30.7486 17.3284 30.7486 15.8856C30.7486 14.4953 31.024 13.3279 31.5749 12.3835C32.1389 11.4391 32.8866 10.6784 33.8179 10.1012C34.7622 9.51101 35.7984 9.09128 36.9265 8.84207C38.0676 8.57974 39.2284 8.44857 40.4089 8.44857C42.219 8.44857 43.7011 8.62565 44.8554 8.97979C46.0096 9.32082 46.8425 9.66185 47.3541 10.0029L46.5474 13.2295C45.8522 12.7967 45.039 12.4229 44.1077 12.1081C43.1765 11.7802 41.9435 11.6162 40.4089 11.6162C39.4252 11.6162 38.4939 11.7539 37.6151 12.0294C36.7494 12.2917 36.0411 12.7049 35.4902 13.2689C34.9393 13.8198 34.6639 14.5281 34.6639 15.3937C34.6639 16.3775 34.8737 17.2038 35.2935 17.8728C35.7263 18.5286 36.3887 19.1319 37.2806 19.6828C38.1725 20.2337 39.3005 20.8568 40.6647 21.5519C41.6484 22.0504 42.619 22.575 43.5765 23.1259C44.5471 23.6768 45.4259 24.2998 46.2129 24.995C46.9999 25.6771 47.6295 26.4641 48.1017 27.356C48.5739 28.2479 48.81 29.271 48.81 30.4252C48.81 32.196 48.3968 33.665 47.5705 34.8324C46.7441 35.9997 45.5965 36.872 44.1274 37.4491C42.6715 38.0262 40.986 38.3148 39.071 38.3148ZM57.5606 23.4997C57.5606 21.0732 57.9213 18.9286 58.6427 17.0661C59.3641 15.2036 60.3479 13.6296 61.5939 12.3442C62.8531 11.0588 64.2959 10.0881 65.9224 9.43231C67.5619 8.77649 69.2933 8.44857 71.1165 8.44857C72.5987 8.44857 73.8382 8.52727 74.835 8.68467C75.8319 8.82895 76.6451 8.98635 77.2747 9.15686C77.9043 9.32738 78.4158 9.45854 78.8093 9.55036L78.2191 13.1902C77.983 13.0721 77.6026 12.9016 77.078 12.6786C76.5664 12.4425 75.845 12.2261 74.9137 12.0294C73.9956 11.8326 72.8151 11.7343 71.3723 11.7343C69.431 11.7343 67.7259 12.1933 66.2569 13.1115C64.8009 14.0296 63.6664 15.3478 62.8531 17.0661C62.053 18.7844 61.653 20.8436 61.653 23.244C61.653 25.5262 62.0333 27.5593 62.7941 29.3431C63.568 31.127 64.6829 32.5304 66.1388 33.5535C67.5947 34.5766 69.3392 35.0881 71.3723 35.0881C72.4347 35.0881 73.4578 34.9963 74.4415 34.8127C75.4253 34.6291 76.2844 34.3995 77.0189 34.1241C77.7666 33.8486 78.3109 33.5797 78.6519 33.3174L78.6716 36.7802C78.1076 36.99 77.4846 37.213 76.8025 37.4491C76.1336 37.6852 75.3466 37.8885 74.4415 38.059C73.5365 38.2295 72.4413 38.3148 71.1559 38.3148C68.4145 38.3148 66.0208 37.6983 63.9746 36.4654C61.9415 35.2193 60.361 33.4879 59.233 31.2712C58.1181 29.0414 57.5606 26.4509 57.5606 23.4997ZM100.926 38.3148C98.2248 38.3673 95.8901 37.7508 93.9226 36.4654C91.9682 35.1668 90.4664 33.3699 89.4171 31.0745C88.3809 28.7791 87.889 26.1558 87.9415 23.2046C88.007 19.9386 88.6498 17.2169 89.8696 15.0396C91.1025 12.8492 92.729 11.2096 94.7489 10.1209C96.782 9.01914 99.038 8.46169 101.517 8.44857C104.114 8.43546 106.37 9.04537 108.285 10.2783C110.2 11.4982 111.669 13.2295 112.692 15.4724C113.728 17.7154 114.213 20.3387 114.148 23.3423C114.082 26.5952 113.466 29.3234 112.298 31.527C111.144 33.7306 109.583 35.4029 107.616 36.5441C105.648 37.6721 103.419 38.2623 100.926 38.3148ZM101.044 35.1668C103.76 35.1537 105.93 34.1306 107.557 32.0976C109.183 30.0645 110.003 27.0871 110.016 23.1653C110.016 21.0535 109.688 19.1188 109.032 17.3612C108.39 15.6036 107.426 14.1936 106.14 13.1312C104.868 12.0687 103.281 11.5441 101.379 11.5572C99.6873 11.5572 98.1395 11.99 96.7361 12.8557C95.3326 13.7083 94.2046 15.0134 93.352 16.771C92.5126 18.5155 92.0928 20.7387 92.0928 23.4407C92.0928 25.5393 92.4273 27.4806 93.0962 29.2644C93.7652 31.0483 94.762 32.4845 96.0868 33.5732C97.4116 34.6487 99.0642 35.18 101.044 35.1668Z" fill="black"/>
<path d="M170.262 38V11.9113H161.093V8.76337H183.601V11.9113H174.393V38H170.262Z" fill="black"/>
<path d="M210.471 37.8163C217.943 37.8163 224 31.5786 224 23.884C224 16.1894 217.943 9.95169 210.471 9.95169C202.999 9.95169 196.941 16.1894 196.941 23.884C196.941 31.5786 202.999 37.8163 210.471 37.8163Z" fill="#B22B2B"/>
<path d="M203.963 30.9323L205.307 21.0172H207.229L205.886 30.9323H203.963ZM206.66 19.0591C206.381 19.0591 206.132 18.9552 205.912 18.7476C205.699 18.5399 205.592 18.2907 205.592 17.9999C205.592 17.6439 205.725 17.3294 205.992 17.0565C206.265 16.7776 206.583 16.6382 206.945 16.6382C207.277 16.6382 207.55 16.7361 207.764 16.9319C207.983 17.1277 208.093 17.3739 208.093 17.6706C208.093 18.0444 207.95 18.3708 207.666 18.6497C207.381 18.9226 207.046 19.0591 206.66 19.0591ZM213.282 31.0747C212.784 31.0747 212.383 30.9471 212.081 30.692C211.778 30.4369 211.627 30.0304 211.627 29.4726C211.627 29.3955 211.63 29.2976 211.635 29.1789C211.647 29.0543 211.659 28.9119 211.671 28.7517C211.689 28.5856 211.71 28.4046 211.733 28.2088L212.445 22.4769H211.484L211.84 21.0172H212.766L213.353 18.5963H214.92L214.599 21.0172H216.824L216.629 22.4769H214.404C214.285 23.3788 214.181 24.165 214.092 24.8355C214.003 25.506 213.926 26.0786 213.861 26.5533C213.801 27.022 213.754 27.4077 213.718 27.7103C213.683 28.007 213.656 28.2355 213.638 28.3957C213.626 28.5559 213.62 28.6657 213.62 28.725C213.62 28.9801 213.653 29.1908 213.718 29.3569C213.789 29.5171 213.923 29.5972 214.119 29.5972C214.249 29.5972 214.427 29.5527 214.653 29.4637C214.884 29.3747 215.116 29.265 215.347 29.1344C215.584 29.0039 215.774 28.8793 215.917 28.7606L216.166 29.7931C216.006 29.9948 215.759 30.1936 215.427 30.3894C215.095 30.5852 214.733 30.7484 214.341 30.8789C213.956 31.0094 213.602 31.0747 213.282 31.0747Z" fill="white"/>
</g>
<defs>
<clipPath id="clip0_626_366">
<rect width="224" height="42" fill="white"/>
</clipPath>
</defs>
</svg>
