<svg width="224" height="42" viewBox="0 0 224 42" fill="none" xmlns="http://www.w3.org/2000/svg">
<g clip-path="url(#clip0_626_384)">
<path d="M151.731 37.8906L146.129 37.9359L141.984 29.4838C141.997 29.4744 142.012 29.465 142.025 29.4573C142.106 29.4406 142.185 29.4226 142.264 29.4033C143.933 29.0037 145.39 28.1826 146.402 27.1035L151.731 37.8906Z" fill="white"/>
<path d="M151.503 23.1139C152.525 19.0534 151.489 14.6772 148.813 11.3274C147.942 10.2393 146.075 8.84614 144.871 8.0212L145.864 5.07617C149.675 7.26901 152.033 10.8854 152.742 14.8115C153.241 17.5888 152.874 20.4988 151.503 23.1139Z" fill="white"/>
<path d="M147.741 20.7179C147.649 21.3413 147.482 21.9296 147.257 22.4867C146.284 24.8532 144.167 26.5412 141.695 26.9583C140.951 27.0884 140.179 27.0983 139.391 26.9785C135.381 26.3679 132.618 22.5752 133.22 18.507C133.566 16.167 134.946 14.251 136.821 13.1629C138.209 12.3487 139.867 11.9871 141.571 12.2464C142.431 12.3774 143.229 12.6555 143.953 13.0495C146.607 14.4906 148.214 17.5221 147.741 20.7179Z" fill="#B22B2B"/>
<path d="M132.519 31.551C132.519 31.551 132.392 31.6246 132.206 31.7341L132.822 30.1219L133.296 28.8853L142.333 5.10254C139.964 5.44569 139.625 5.6177 138.779 5.78927C137.452 6.0584 136.659 6.25865 135.395 6.47601L128.728 24.2442L127.942 26.31L121.964 42L126.339 40.5692L129.349 39.5907C129.658 38.2993 130.159 37.0962 130.814 36.0094C132.83 32.6686 136.309 30.418 140.216 30.0346C137.455 29.6696 134.78 30.2579 132.519 31.551Z" fill="white"/>
<path d="M3.56152 37.9999V8.76325H20.3637V11.9112H7.65387V21.3748H17.019V24.4834H7.65387V34.7929H21.741V37.9999H3.56152ZM39.071 38.3147C37.7987 38.3147 36.5986 38.2163 35.4705 38.0196C34.3425 37.8359 33.3653 37.613 32.539 37.3506C31.7258 37.0883 31.1421 36.8391 30.788 36.603L31.6733 33.278C32.1849 33.5665 32.821 33.8485 33.5818 34.124C34.3556 34.3994 35.1951 34.629 36.1001 34.8126C37.0052 34.9831 37.9168 35.0684 38.8349 35.0684C40.7237 35.0684 42.1862 34.7339 43.2224 34.065C44.2586 33.396 44.7767 32.327 44.7767 30.858C44.7767 29.8611 44.5143 29.0348 43.9897 28.379C43.4781 27.71 42.7305 27.0935 41.7468 26.5295C40.7761 25.9655 39.5957 25.3622 38.2053 24.7195C36.9724 24.1292 35.7853 23.4275 34.6442 22.6143C33.5031 21.7879 32.5652 20.8239 31.8307 19.7221C31.1093 18.6072 30.7486 17.3283 30.7486 15.8855C30.7486 14.4952 31.024 13.3278 31.5749 12.3834C32.1389 11.439 32.8866 10.6783 33.8179 10.1011C34.7622 9.51089 35.7984 9.09116 36.9265 8.84195C38.0676 8.57962 39.2284 8.44845 40.4089 8.44845C42.219 8.44845 43.7011 8.62553 44.8554 8.97967C46.0096 9.3207 46.8425 9.66173 47.3541 10.0028L46.5474 13.2294C45.8522 12.7966 45.039 12.4228 44.1077 12.108C43.1765 11.7801 41.9435 11.6161 40.4089 11.6161C39.4252 11.6161 38.4939 11.7538 37.6151 12.0293C36.7494 12.2916 36.0411 12.7048 35.4902 13.2688C34.9393 13.8197 34.6639 14.528 34.6639 15.3936C34.6639 16.3774 34.8737 17.2037 35.2935 17.8727C35.7263 18.5285 36.3887 19.1318 37.2806 19.6827C38.1725 20.2336 39.3005 20.8567 40.6647 21.5518C41.6484 22.0503 42.619 22.5749 43.5765 23.1258C44.5471 23.6767 45.4259 24.2997 46.2129 24.9949C46.9999 25.677 47.6295 26.464 48.1017 27.3559C48.5739 28.2478 48.81 29.2709 48.81 30.4251C48.81 32.1959 48.3968 33.6649 47.5705 34.8323C46.7441 35.9996 45.5965 36.8719 44.1274 37.449C42.6715 38.0261 40.986 38.3147 39.071 38.3147ZM57.5606 23.4996C57.5606 21.0731 57.9213 18.9285 58.6427 17.066C59.3641 15.2035 60.3479 13.6295 61.5939 12.3441C62.8531 11.0587 64.2959 10.088 65.9224 9.43219C67.5619 8.77637 69.2933 8.44845 71.1165 8.44845C72.5987 8.44845 73.8382 8.52715 74.835 8.68455C75.8319 8.82883 76.6451 8.98623 77.2747 9.15674C77.9043 9.32726 78.4158 9.45842 78.8093 9.55024L78.2191 13.1901C77.983 13.072 77.6026 12.9015 77.078 12.6785C76.5664 12.4424 75.845 12.226 74.9137 12.0293C73.9956 11.8325 72.8151 11.7342 71.3723 11.7342C69.431 11.7342 67.7259 12.1932 66.2569 13.1114C64.8009 14.0295 63.6664 15.3477 62.8531 17.066C62.053 18.7843 61.653 20.8435 61.653 23.2439C61.653 25.5261 62.0333 27.5592 62.7941 29.343C63.568 31.1269 64.6829 32.5303 66.1388 33.5534C67.5947 34.5765 69.3392 35.088 71.3723 35.088C72.4347 35.088 73.4578 34.9962 74.4415 34.8126C75.4253 34.629 76.2844 34.3994 77.0189 34.124C77.7666 33.8485 78.3109 33.5796 78.6519 33.3173L78.6716 36.7801C78.1076 36.9899 77.4846 37.2129 76.8025 37.449C76.1336 37.6851 75.3466 37.8884 74.4415 38.0589C73.5365 38.2294 72.4413 38.3147 71.1559 38.3147C68.4145 38.3147 66.0208 37.6982 63.9746 36.4653C61.9415 35.2192 60.361 33.4878 59.233 31.2711C58.1181 29.0413 57.5606 26.4508 57.5606 23.4996ZM100.926 38.3147C98.2248 38.3672 95.8901 37.7507 93.9226 36.4653C91.9682 35.1667 90.4664 33.3698 89.4171 31.0744C88.3809 28.779 87.889 26.1557 87.9415 23.2045C88.007 19.9385 88.6498 17.2168 89.8696 15.0395C91.1025 12.8491 92.729 11.2095 94.7489 10.1208C96.782 9.01902 99.038 8.46157 101.517 8.44845C104.114 8.43534 106.37 9.04525 108.285 10.2782C110.2 11.4981 111.669 13.2294 112.692 15.4723C113.728 17.7153 114.213 20.3386 114.148 23.3422C114.082 26.5951 113.466 29.3233 112.298 31.5269C111.144 33.7305 109.583 35.4028 107.616 36.544C105.648 37.672 103.419 38.2622 100.926 38.3147ZM101.044 35.1667C103.76 35.1536 105.93 34.1305 107.557 32.0975C109.183 30.0644 110.003 27.087 110.016 23.1652C110.016 21.0534 109.688 19.1187 109.032 17.3611C108.39 15.6035 107.426 14.1935 106.14 13.1311C104.868 12.0686 103.281 11.544 101.379 11.5571C99.6873 11.5571 98.1395 11.9899 96.7361 12.8556C95.3326 13.7082 94.2046 15.0133 93.352 16.7709C92.5126 18.5154 92.0928 20.7386 92.0928 23.4406C92.0928 25.5392 92.4273 27.4805 93.0962 29.2643C93.7652 31.0482 94.762 32.4844 96.0868 33.5731C97.4116 34.6486 99.0642 35.1799 101.044 35.1667Z" fill="white"/>
<path d="M170.262 37.9998V11.9111H161.093V8.76318H183.601V11.9111H174.393V37.9998H170.262Z" fill="white"/>
<path d="M210.471 37.8163C217.943 37.8163 224 31.5786 224 23.884C224 16.1894 217.943 9.95166 210.471 9.95166C202.999 9.95166 196.941 16.1894 196.941 23.884C196.941 31.5786 202.999 37.8163 210.471 37.8163Z" fill="#B22B2B"/>
<path d="M203.963 30.9323L205.307 21.0172H207.229L205.886 30.9323H203.963ZM206.66 19.0591C206.381 19.0591 206.132 18.9552 205.912 18.7476C205.699 18.5399 205.592 18.2907 205.592 17.9999C205.592 17.6439 205.725 17.3294 205.992 17.0565C206.265 16.7776 206.583 16.6382 206.945 16.6382C207.277 16.6382 207.55 16.7361 207.764 16.9319C207.983 17.1277 208.093 17.3739 208.093 17.6706C208.093 18.0444 207.95 18.3708 207.666 18.6497C207.381 18.9226 207.046 19.0591 206.66 19.0591ZM213.282 31.0747C212.784 31.0747 212.383 30.9471 212.081 30.692C211.778 30.4369 211.627 30.0304 211.627 29.4726C211.627 29.3955 211.63 29.2976 211.635 29.1789C211.647 29.0543 211.659 28.9119 211.671 28.7517C211.689 28.5856 211.71 28.4046 211.733 28.2088L212.445 22.4769H211.484L211.84 21.0172H212.766L213.353 18.5963H214.92L214.599 21.0172H216.824L216.629 22.4769H214.404C214.285 23.3788 214.181 24.165 214.092 24.8355C214.003 25.506 213.926 26.0786 213.861 26.5533C213.801 27.022 213.754 27.4077 213.718 27.7103C213.683 28.007 213.656 28.2355 213.638 28.3957C213.626 28.5559 213.62 28.6657 213.62 28.725C213.62 28.9801 213.653 29.1908 213.718 29.3569C213.789 29.5171 213.923 29.5972 214.119 29.5972C214.249 29.5972 214.427 29.5527 214.653 29.4637C214.884 29.3747 215.116 29.265 215.347 29.1344C215.584 29.0039 215.774 28.8793 215.917 28.7606L216.166 29.7931C216.006 29.9948 215.759 30.1936 215.427 30.3894C215.095 30.5852 214.733 30.7484 214.341 30.8789C213.956 31.0094 213.602 31.0747 213.282 31.0747Z" fill="white"/>
</g>
<defs>
<clipPath id="clip0_626_384">
<rect width="224" height="42" fill="white"/>
</clipPath>
</defs>
</svg>
