<svg width="106" height="106" viewBox="0 0 106 106" fill="none" xmlns="http://www.w3.org/2000/svg">
<path d="M59.9014 106H45.8306C45.2946 106 45.0265 105.599 45.0265 105.064V90.8953C40.2023 89.9596 35.78 88.0883 31.6258 85.4149L21.5752 95.4401C21.3072 95.7074 20.6372 95.7074 20.3692 95.4401L10.4526 85.5485C10.0506 85.1475 10.0506 84.6129 10.4526 84.3455L20.5032 74.3203C17.823 70.1766 15.9469 65.7655 15.0089 60.9534H0.804043C0.268013 60.9534 0 60.5523 0 60.0177V45.9824C0 45.4477 0.402021 45.0466 0.804043 45.0466H15.0089C15.9469 40.2345 17.823 35.8235 20.5032 31.6797L10.4526 21.6545C10.0506 21.2535 10.0506 20.7188 10.4526 20.4515L20.3692 10.5599C20.6372 10.2926 21.3072 10.2926 21.5752 10.5599L31.6258 20.5851C35.78 17.9117 40.2023 16.0404 45.0265 15.1047V0.935703C45.0265 0.401025 45.4286 0 45.8306 0H59.9014C60.4374 0 60.7054 0.401025 60.7054 0.935703V15.2384C65.5297 16.174 69.952 18.0454 74.1062 20.7188L84.1568 10.6936C84.4248 10.4262 85.0948 10.4262 85.3628 10.6936L95.2794 20.5851C95.6814 20.9861 95.6814 21.5209 95.2794 21.7882L85.2288 31.8134C87.909 35.9572 89.7851 40.3683 90.7231 45.1804H105.062C105.598 45.1804 106 45.5813 106 46.116V60.1513C106 60.686 105.598 61.087 105.062 61.087H90.8571C89.9191 65.8991 88.043 70.3102 85.3628 74.4539L95.4134 84.4792C95.8154 84.8802 95.8154 85.4149 95.4134 85.6822L85.4968 95.5737C85.2288 95.8411 84.5588 95.8411 84.2908 95.5737L74.2402 85.5485C70.086 88.2219 65.6637 90.0933 60.8394 91.029V105.198C60.7054 105.599 60.4374 106 59.9014 106ZM46.7687 104.262H59.0973V90.3606C59.0973 89.9596 59.3654 89.5586 59.7674 89.5586C64.8597 88.6229 69.5499 86.6179 73.8382 83.8108C74.2402 83.5435 74.6422 83.6772 74.9102 83.9445L84.8268 93.836L93.5373 85.1475L83.6207 75.256C83.3527 74.9887 83.2187 74.4539 83.4867 74.1866C86.4349 69.9092 88.311 65.2307 89.249 60.1513C89.3831 59.7503 89.6511 59.4829 90.0531 59.4829H103.99V47.1854H90.0531C89.6511 47.1854 89.249 46.9181 89.249 46.5171C88.311 41.4376 86.3009 36.7592 83.4867 32.4818C83.2187 32.0808 83.3527 31.6797 83.6207 31.4123L93.5373 21.5208L84.8268 12.8323L74.9102 22.7238C74.6422 22.9912 74.1062 23.1249 73.8382 22.8575C69.5499 19.9168 64.8597 18.0455 59.7674 17.1098C59.3654 16.9761 59.0973 16.7087 59.0973 16.3077V2.40612H46.7687V16.3077C46.7687 16.7087 46.5006 17.1098 46.0986 17.1098C41.0063 18.0455 36.3161 20.0505 32.0278 22.8575C31.6258 23.1249 31.2238 22.9912 30.9557 22.7238L21.0392 12.8323L12.3287 21.5208L22.2453 31.4123C22.5133 31.6797 22.6473 32.2144 22.3793 32.4818C19.4311 36.7592 17.555 41.4376 16.6169 46.5171C16.4829 46.9181 16.2149 47.1854 15.8129 47.1854H1.87611V59.4829H15.8129C16.2149 59.4829 16.6169 59.7503 16.6169 60.1513C17.555 65.2307 19.5651 69.9092 22.3793 74.1866C22.6473 74.5876 22.5133 74.9887 22.2453 75.256L12.3287 85.1475L21.0392 93.836L30.9557 83.9445C31.2238 83.6772 31.7598 83.5435 32.0278 83.8108C36.3161 86.7515 41.0063 88.6229 46.0986 89.5586C46.5006 89.6923 46.7687 89.9596 46.7687 90.3606V104.262Z" fill="#B93839"/>
<path d="M53 81C36.9488 81 24 68.1419 24 52.5C24 36.8581 37.0837 24 53 24C69.0512 24 82 36.8581 82 52.5C82 68.1419 69.0512 81 53 81ZM53 25.7232C37.893 25.7232 25.7535 37.786 25.7535 52.5C25.7535 67.3465 38.0279 79.2768 53 79.2768C68.107 79.2768 80.2465 67.214 80.2465 52.5C80.2465 37.6535 68.107 25.7232 53 25.7232Z" fill="#B93839"/>
<path d="M53.1629 82C52.8989 82 52.635 81.8656 52.503 81.5967C52.2391 81.1933 52.2391 80.6555 52.635 80.3866C62.0053 73.2609 67.1523 63.5806 67.1523 53.0937C67.1523 42.7412 61.7413 32.6576 52.371 25.5319C51.9751 25.263 51.8431 24.7252 52.2391 24.3219C52.503 23.9185 53.0309 23.9185 53.4269 24.1874C63.3251 31.582 69 42.2034 69 53.0937C69 63.8495 63.457 74.3365 53.8228 81.7311C53.5588 82 53.2949 82 53.1629 82Z" fill="#B93839"/>
<path d="M53.094 82C52.961 82 52.695 82 52.562 81.8653C42.5864 74.4535 37 63.9421 37 52.8918C37 41.9762 42.5864 31.5997 52.296 24.1879C52.695 23.9183 53.227 23.9183 53.4931 24.3226C53.7591 24.7269 53.7591 25.2659 53.36 25.5355C43.9164 32.6778 38.7291 42.3805 38.7291 52.8918C38.7291 63.2683 44.1825 73.3753 53.6261 80.3829C54.0251 80.6524 54.1581 81.1915 53.7591 81.5957C53.6261 82 53.36 82 53.094 82Z" fill="#B93839"/>
<path d="M53 42C45.7081 42 38.5487 39.4998 32.3174 34.6309C31.9196 34.3677 31.9196 33.8413 32.1848 33.4466C32.45 33.0518 32.9803 33.0518 33.378 33.315C39.2116 37.9207 45.9732 40.2893 53 40.2893C60.0268 40.2893 66.7884 37.7891 72.622 33.1834C73.0197 32.9203 73.55 32.9202 73.8152 33.315C74.0804 33.7098 74.0804 34.2362 73.6826 34.4994C67.4513 39.4998 60.292 42 53 42Z" fill="#B93839"/>
<path d="M73.1469 73C73.0135 73 72.7466 73 72.6132 72.8656C66.7426 68.1641 59.938 65.7462 53 65.7462C46.062 65.7462 39.2574 68.1642 33.3868 72.7313C32.9865 73 32.4528 72.9999 32.186 72.597C31.9191 72.194 31.9191 71.6567 32.3194 71.388C38.4569 66.5522 45.6617 64 53 64C60.3383 64 67.5431 66.5522 73.6806 71.5223C74.0809 71.791 74.0809 72.3283 73.814 72.7313C73.6806 72.8657 73.4137 73 73.1469 73Z" fill="#B93839"/>
<path d="M53.1428 82C52.5714 82 52.2857 81.5963 52.2857 81.1926L52 24.942C52 24.4037 52.4286 24 52.8571 24C53.4286 24 53.7143 24.4037 53.7143 24.8074L54 81.058C54 81.5963 53.5714 82 53.1428 82Z" fill="#B93839"/>
<path d="M24.8093 54C24.2698 54 24 53.6 24 53.2C24 52.6667 24.4046 52.2667 24.8093 52.2667L81.1907 52C81.7302 52 82 52.4 82 52.8C82 53.3334 81.5953 53.7334 81.1907 53.7334L24.8093 54Z" fill="#B93839"/>
</svg>
