<svg width="116" height="98" viewBox="0 0 116 98" fill="none" xmlns="http://www.w3.org/2000/svg">
<path d="M114.627 84H1.37342C0.791137 84 0.5 83.5602 0.5 82.9738V1.02615C0.5 0.439764 0.936707 0 1.37342 0H114.627C115.209 0 115.5 0.439764 115.5 1.02615V82.9738C115.5 83.5602 115.063 84 114.627 84ZM2.24684 82.0943H113.608V2.05235H2.24684V82.0943Z" fill="#B93839"/>
<path d="M108.481 76H9.3732C8.79106 76 8.5 75.5622 8.5 74.9785V9.02148C8.5 8.43779 8.9366 8 9.3732 8H108.627C109.209 8 109.5 8.43779 109.5 9.02148V75.1245C109.5 75.5622 109.063 76 108.481 76ZM10.2464 74.103H107.608V10.0429H10.2464V74.103Z" fill="#B93839"/>
<path d="M42 53C35.7273 53 30.5 47.7727 30.5 41.5C30.5 35.2272 35.7273 30 42 30C48.2727 30 53.5 35.2272 53.5 41.5C53.5 47.7727 48.2727 53 42 53ZM42 31.9415C36.7727 31.9415 32.4416 36.2727 32.4416 41.5C32.4416 46.7273 36.7727 51.0584 42 51.0584C47.2273 51.0584 51.5584 46.7273 51.5584 41.5C51.5584 36.2727 47.2273 31.9415 42 31.9415Z" fill="#B93839"/>
<path d="M42.5 32C41.8333 32 41.5 31.5631 41.5 30.9806V18.0194C41.5 17.4369 42 17 42.5 17C43 17 43.5 17.4369 43.5 18.0194V30.9806C43.5 31.5631 43.1667 32 42.5 32Z" fill="#B93839"/>
<path d="M65.6089 43H52.3911C51.797 43 51.5 42.5714 51.5 42C51.5 41.4285 51.9456 41 52.3911 41H65.6089C66.203 41 66.5 41.4285 66.5 42C66.5 42.5714 66.203 43 65.6089 43Z" fill="#B93839"/>
<path d="M42.5 66C41.8333 66 41.5 65.5588 41.5 64.9706V52.0294C41.5 51.4412 42 51 42.5 51C43 51 43.5 51.4412 43.5 52.0294V64.9706C43.5 65.5588 43.1667 66 42.5 66Z" fill="#B93839"/>
<path d="M31.6089 43H18.3911C17.797 43 17.5 42.5714 17.5 42C17.5 41.4285 17.9455 41 18.3911 41H31.6089C32.203 41 32.5 41.4285 32.5 42C32.5 42.5714 32.203 43 31.6089 43Z" fill="#B93839"/>
<path d="M48.6549 36C48.3363 36 48.177 35.84 47.8584 35.68C47.3805 35.2 47.3805 34.56 47.8584 34.24L54.7079 27.36C55.1858 26.88 55.823 26.88 56.1416 27.36C56.6195 27.84 56.6195 28.48 56.1416 28.8L49.292 35.68C49.1327 36 48.8142 36 48.6549 36Z" fill="#B93839"/>
<path d="M55.5044 57C55.1858 57 55.0265 56.84 54.7079 56.68L47.8584 49.8C47.3805 49.32 47.3805 48.68 47.8584 48.36C48.3363 47.88 48.9734 47.88 49.292 48.36L56.1416 55.24C56.6195 55.72 56.6195 56.36 56.1416 56.68C55.9823 57 55.823 57 55.5044 57Z" fill="#B93839"/>
<path d="M28.6549 57C28.3363 57 28.177 56.84 27.8584 56.68C27.3805 56.2 27.3805 55.56 27.8584 55.24L34.708 48.36C35.1858 47.88 35.823 47.88 36.1416 48.36C36.6195 48.84 36.6195 49.48 36.1416 49.8L29.292 56.68C29.1327 57 28.8142 57 28.6549 57Z" fill="#B93839"/>
<path d="M35.5044 36C35.1858 36 35.0265 35.84 34.708 35.68L27.8584 28.8C27.3805 28.32 27.3805 27.68 27.8584 27.36C28.3363 26.88 28.9734 26.88 29.292 27.36L36.1416 34.24C36.6195 34.72 36.6195 35.36 36.1416 35.68C35.9823 36 35.823 36 35.5044 36Z" fill="#B93839"/>
<path d="M41.5 48C38.2692 48 35.5 45.3846 35.5 42C35.5 38.7692 38.1154 36 41.5 36C44.7308 36 47.5 38.6154 47.5 42C47.3462 45.3846 44.7308 48 41.5 48ZM41.5 38.1538C39.3462 38.1538 37.5 39.8461 37.5 42.1538C37.5 44.3077 39.1923 46.1538 41.5 46.1538C43.6539 46.1538 45.5 44.4615 45.5 42.1538C45.3462 40 43.6539 38.1538 41.5 38.1538Z" fill="#B93839"/>
<path d="M93.6618 60H76.3382C75.7794 60 75.5 59.5745 75.5 59.0071V40.9929C75.5 40.4255 75.9191 40 76.3382 40H93.6618C94.2206 40 94.5 40.4255 94.5 40.9929V59.0071C94.5 59.5745 94.0809 60 93.6618 60ZM77.1765 58.156H92.6838V41.9858H77.1765V58.156Z" fill="#B93839"/>
<path d="M93.6618 41H76.3382C75.7794 41 75.5 40.5714 75.5 40V32C75.5 31.4285 75.9191 31 76.3382 31H93.6618C94.2206 31 94.5 31.4285 94.5 32V40C94.5 40.5714 94.0809 41 93.6618 41ZM77.1765 39.1428H92.6838V33H77.1765V39.1428Z" fill="#B93839"/>
<path d="M80.5798 46H79.3914C78.7971 46 78.5 45.5715 78.5 45C78.5 44.4286 78.9457 44 79.3914 44H80.5798C81.1741 44 81.4712 44.4286 81.4712 45C81.6198 45.5715 81.1741 46 80.5798 46Z" fill="#B93839"/>
<path d="M85.6 46H84.4C83.8 46 83.5 45.5715 83.5 45C83.5 44.4286 83.95 44 84.4 44H85.6C86.2 44 86.5 44.4286 86.5 45C86.5 45.5715 86.05 46 85.6 46Z" fill="#B93839"/>
<path d="M90.5798 46H89.3914C88.7971 46 88.5 45.5715 88.5 45C88.5 44.4286 88.9457 44 89.3914 44H90.5798C91.1741 44 91.4712 44.4286 91.4712 45C91.6198 45.5715 91.1741 46 90.5798 46Z" fill="#B93839"/>
<path d="M80.5798 50H79.3914C78.7971 50 78.5 49.5714 78.5 49C78.5 48.4285 78.9457 48 79.3914 48H80.5798C81.1741 48 81.4712 48.4285 81.4712 49C81.6198 49.5714 81.1741 50 80.5798 50Z" fill="#B93839"/>
<path d="M85.6 50H84.4C83.8 50 83.5 49.5714 83.5 49C83.5 48.4285 83.95 48 84.4 48H85.6C86.2 48 86.5 48.4285 86.5 49C86.5 49.5714 86.05 50 85.6 50Z" fill="#B93839"/>
<path d="M90.5798 50H89.3914C88.7971 50 88.5 49.5714 88.5 49C88.5 48.4285 88.9457 48 89.3914 48H90.5798C91.1741 48 91.4712 48.4285 91.4712 49C91.6198 49.5714 91.1741 50 90.5798 50Z" fill="#B93839"/>
<path d="M80.5798 56H79.3914C78.7971 56 78.5 55.5714 78.5 55C78.5 54.4285 78.9457 54 79.3914 54H80.5798C81.1741 54 81.4712 54.4285 81.4712 55C81.6198 55.5714 81.1741 56 80.5798 56Z" fill="#B93839"/>
<path d="M85.6 56H84.4C83.8 56 83.5 55.5714 83.5 55C83.5 54.4285 83.95 54 84.4 54H85.6C86.2 54 86.5 54.4285 86.5 55C86.5 55.5714 86.05 56 85.6 56Z" fill="#B93839"/>
<path d="M90.5798 56H89.3914C88.7971 56 88.5 55.5714 88.5 55C88.5 54.4285 88.9457 54 89.3914 54H90.5798C91.1741 54 91.4712 54.4285 91.4712 55C91.6198 55.5714 91.1741 56 90.5798 56Z" fill="#B93839"/>
<path d="M14.587 98H3.38441C2.7948 98 2.5 97.5752 2.5 97.0089V82.9912C2.5 82.4248 2.94221 82 3.38441 82H14.587C15.1766 82 15.4714 82.4248 15.4714 82.9912V97.0089C15.6188 97.5752 15.1766 98 14.587 98ZM4.41623 96.1593H13.7026V84.1239H4.41623V96.1593Z" fill="#B93839"/>
<path d="M111.587 98H100.384C99.7948 98 99.5 97.5752 99.5 97.0089V82.9912C99.5 82.4248 99.9422 82 100.384 82H111.587C112.177 82 112.471 82.4248 112.471 82.9912V97.0089C112.619 97.5752 112.177 98 111.587 98ZM101.416 96.1593H110.703V84.1239H101.416V96.1593Z" fill="#B93839"/>
</svg>
