<svg width="143" height="97" viewBox="0 0 143 97" fill="none" xmlns="http://www.w3.org/2000/svg">
<path d="M141.736 97.0003H1.26391C0.541689 97.0003 0 96.474 0 95.7724C0 95.0707 0.541689 94.5446 1.26391 94.5446H141.736C142.458 94.5446 143 95.0707 143 95.7724C143 96.474 142.278 97.0003 141.736 97.0003Z" fill="#B93839"/>
<path d="M29.3111 97.0003H12.2445C11.5334 97.0003 11 96.4486 11 95.7131V60.2242C11 59.4887 11.5334 58.937 12.2445 58.937H29.3111C30.0222 58.937 30.5556 59.4887 30.5556 60.2242V95.7131C30.5556 96.4486 30.0222 97.0003 29.3111 97.0003ZM13.4889 94.6099H28.2445V61.5114H13.4889V94.6099Z" fill="#B93839"/>
<path d="M62.3112 97.0003H45.2445C44.5334 97.0003 44 96.4606 44 95.7411V41.7784C44 41.0589 44.5334 40.5193 45.2445 40.5193H62.3112C63.0223 40.5193 63.5556 41.0589 63.5556 41.7784V95.7411C63.5556 96.4606 63.0223 97.0003 62.3112 97.0003ZM46.4889 94.6619H61.2445V43.0375H46.4889V94.6619Z" fill="#B93839"/>
<path d="M96.5318 97.0003H79.4652C78.7541 97.0003 78.2207 96.4565 78.2207 95.7315V22.1426C78.2207 21.4176 78.7541 20.8738 79.4652 20.8738H96.5318C97.2429 20.8738 97.7763 21.4176 97.7763 22.1426V95.7315C97.5985 96.4565 97.0651 97.0003 96.5318 97.0003ZM80.5318 94.644H95.2873V23.4113H80.5318V94.644Z" fill="#B93839"/>
<path d="M130.754 96.9999H113.688C112.977 96.9999 112.443 96.456 112.443 95.7308V1.26918C112.443 0.543947 112.977 0 113.688 0H130.754C131.466 0 131.999 0.543947 131.999 1.26918V95.7308C131.821 96.456 131.288 96.9999 130.754 96.9999ZM114.754 94.643H129.51V2.53831H114.754V94.643Z" fill="#B93839"/>
</svg>
