<svg width="145" height="84" viewBox="0 0 145 84" fill="none" xmlns="http://www.w3.org/2000/svg">
<path d="M132.231 69H12.7689C12.0437 69 11.5 68.4509 11.5 67.7188V1.28119C11.5 0.549094 12.0437 0 12.7689 0H132.231C132.956 0 133.5 0.549094 133.5 1.28119V67.7188C133.5 68.4509 132.956 69 132.231 69ZM13.8566 66.6207H130.962V2.56238H13.8566V66.6207Z" fill="#B93839"/>
<path d="M135.773 84H9.04548C4.3182 84 0.5 80.021 0.5 75.0947V67.3263C0.5 66.5684 1.04548 66 1.77275 66H143.227C143.955 66 144.5 66.5684 144.5 67.3263V75.0947C144.318 80.021 140.5 84 135.773 84ZM2.86361 68.4631V74.9052C2.86361 78.5052 5.59093 81.3473 9.04548 81.3473H135.773C139.227 81.3473 141.954 78.5052 141.954 74.9052V68.4631H2.86361Z" fill="#B93839"/>
<path d="M89.6786 76H54.3214C51.6429 76 49.5 73.7778 49.5 71V67.2963C49.5 66.5555 50.0357 66 50.75 66H93.25C93.9643 66 94.5 66.5555 94.5 67.2963V71C94.5 73.7778 92.3571 76 89.6786 76ZM51.8214 68.4074V71C51.8214 72.4815 52.8929 73.5926 54.3214 73.5926H89.6786C91.1071 73.5926 92.1786 72.4815 92.1786 71V68.4074H51.8214Z" fill="#B93839"/>
<path d="M127.229 68H17.7707C17.0446 68 16.5 67.4514 16.5 66.72V5.28002C16.5 4.54859 17.0446 4 17.7707 4H127.229C127.955 4 128.5 4.54859 128.5 5.28002V66.72C128.5 67.4514 127.955 68 127.229 68ZM18.8598 65.6229H125.959V6.55999H18.8598V65.6229Z" fill="#B93839"/>
<path d="M71.4999 64C57.0555 64 45.5 52.0382 45.5 37.5C45.5 22.7778 57.236 11 71.4999 11C85.9444 11 97.5 22.9618 97.5 37.5C97.5 52.0382 85.7638 64 71.4999 64ZM71.4999 13.2083C58.4999 13.2083 47.8472 24.066 47.8472 37.316C47.8472 50.566 58.4999 61.4236 71.4999 61.4236C84.5 61.4236 95.1528 50.566 95.1528 37.316C95.1528 24.066 84.5 13.2083 71.4999 13.2083Z" fill="#B93839"/>
<path d="M72.1842 54C70.1579 54 67.9474 53.4643 66.2895 52.75C65.0001 52.0357 63.8947 51.1429 62.9737 49.7143C62.0526 48.2857 61.5 46.6786 61.5 44.7143C61.5 44 61.8685 43.4643 62.6053 43.4643C63.158 43.4643 63.8947 43.8214 63.8947 44.5357C64.0789 46.1429 64.4474 47.3929 65.1842 48.4643C65.921 49.5358 66.6579 50.25 67.5789 50.6071C70.7105 52.2143 75.6842 52.2143 78.4474 49.3572C79.7368 47.9286 80.4736 46.3214 80.4736 44.3571C80.4736 43.4643 80.2894 42.5714 79.921 41.8571C79.5526 41.1429 79.1842 40.4286 78.6315 39.8929C78.0789 39.3571 77.3421 38.8214 76.4211 38.4643C75.1316 37.9286 73.8421 37.5714 72.3684 37.2143C70.3421 36.6786 68.5001 36.1429 66.2895 35.0714C65.0001 34.3572 63.8947 33.2857 63.3421 32.0357C62.6053 30.7857 62.2369 29.3572 62.2369 27.9286C62.2369 25.25 63.3421 22.9285 65.1842 21.1428C66.8421 19.7143 69.2368 19 72 19C74.7632 19 77.1579 19.7143 78.8158 21.1428C80.4737 22.5714 81.579 24.5357 81.9474 26.8571C82.1316 27.5714 81.5789 28.1071 80.8421 28.1071C80.1052 28.1071 79.5526 27.75 79.5526 27.0357C79.3684 25.25 78.4473 23.8214 77.1579 22.75C76.0526 21.8571 74.0263 21.3214 72 21.3214C69.7895 21.3214 67.9473 21.8571 66.6579 22.9285C65.1842 24.1785 64.4474 25.7857 64.4474 27.9286C64.4474 29 64.6316 30.0714 65.1842 30.9643C65.7368 31.8571 66.2895 32.5714 67.2106 32.9286C69.0527 34 70.8948 34.3572 72.7369 34.8929C74.2106 35.25 75.6842 35.6071 77.1579 36.3214C78.4473 36.8571 79.3685 37.3929 80.1053 38.2857C80.8421 39 81.579 39.8929 81.9474 40.9643C82.3158 42.0357 82.5 43.1071 82.5 44.3571C82.5 47.0357 81.5789 49.1786 79.921 50.9643C78.0789 53.1072 75.1315 54 72.1842 54Z" fill="#B93839"/>
<path d="M72.5 58C71.9285 58 71.5 57.4487 71.5 56.7137V16.2863C71.5 15.5513 71.9285 15 72.5 15C73.0714 15 73.5 15.5513 73.5 16.2863V56.7137C73.3571 57.4487 72.9285 58 72.5 58Z" fill="#B93839"/>
</svg>
