<svg width="118" height="91" viewBox="0 0 118 91" fill="none" xmlns="http://www.w3.org/2000/svg">
<path d="M116.951 38H36.0488C35.4495 38 35 37.5477 35 36.9445V1.05548C35 0.452308 35.4495 0 36.0488 0H116.951C117.551 0 118 0.452308 118 1.05548V36.9445C117.85 37.5477 117.401 38 116.951 38ZM37.0975 36.0397H115.902V2.11106H37.0975V36.0397Z" fill="#B93839"/>
<path d="M35.9763 38H1.02373C0.438753 38 0 37.5477 0 36.9445V1.05548C0 0.452308 0.438753 0 1.02373 0H35.9763C36.5612 0 37 0.452308 37 1.05548V36.9445C37 37.5477 36.5612 38 35.9763 38ZM2.04742 36.0397H35.0988V2.11106H2.04742V36.0397Z" fill="#B93839"/>
<path d="M116.957 91H1.04295C0.446988 91 0 90.5477 0 89.9445V54.0555C0 53.4523 0.446988 53 1.04295 53H116.957C117.553 53 118 53.4523 118 54.0555V89.9445C117.851 90.5477 117.404 91 116.957 91ZM1.93685 89.0397H115.914V55.1111H1.93685V89.0397Z" fill="#B93839"/>
<path d="M35.9763 91H1.02373C0.438753 91 0 90.5477 0 89.9445V54.0555C0 53.4523 0.438753 53 1.02373 53H35.9763C36.5612 53 37 53.4523 37 54.0555V89.9445C37 90.5477 36.5612 91 35.9763 91ZM2.04742 89.0397H35.0988V55.1111H2.04742V89.0397Z" fill="#B93839"/>
<path d="M11.4961 81C9.01548 81 7 79.043 7 76.6344V71.3655C7 68.9569 9.01548 67 11.4961 67C13.9767 67 15.9922 68.9569 15.9922 71.3655V76.6344C16.1472 79.043 13.9767 81 11.4961 81ZM11.4961 68.8064C10.1007 68.8064 9.01547 69.8602 9.01547 71.215V76.4839C9.01547 77.8387 10.1007 78.8924 11.4961 78.8924C12.8914 78.8924 13.9767 77.8387 13.9767 76.4839V71.215C14.1317 69.8602 12.8914 68.8064 11.4961 68.8064Z" fill="#B93839"/>
<path d="M31.0732 78C30.4553 78 29.9919 77.55 29.9919 76.95V74.0999H14.0813C13.4634 74.0999 13 73.65 13 73.05C13 72.45 13.4634 72 14.0813 72H30.9187C31.5366 72 32 72.45 32 73.05V76.95C32 77.55 31.5366 78 31.0732 78Z" fill="#B93839"/>
<path d="M26 78C25.4286 78 25 77.5 25 76.8333V73.1667C25 72.5 25.4286 72 26 72C26.5714 72 27 72.5 27 73.1667V76.8333C26.8571 77.5 26.5714 78 26 78Z" fill="#B93839"/>
<path d="M18.5 20C14.3824 20 11 16.32 11 12C11 7.52 14.3824 4 18.5 4C22.6176 4 26 7.52 26 12C26 16.32 22.6176 20 18.5 20ZM18.5 6.07998C15.4118 6.07998 12.9117 8.8 12.9117 12C12.9117 15.36 15.4118 17.92 18.5 17.92C21.5882 17.92 24.0882 15.2 24.0882 12C24.0882 8.64 21.5882 6.07998 18.5 6.07998Z" fill="#B93839"/>
<path d="M30.0761 33H9.04416C8.44751 33 8 32.5601 8 31.9734V30.5067C8 25.8134 11.8783 22 16.6515 22H22.3196C27.0928 22 30.9711 25.8134 30.9711 30.5067V31.9734C31.1203 32.5601 30.6728 33 30.0761 33ZM10.0883 31.0934H29.1811V30.5067C29.1811 26.8401 26.1979 23.9067 22.4688 23.9067H16.8006C13.0716 23.9067 10.0883 26.8401 10.0883 30.5067V31.0934Z" fill="#B93839"/>
<path d="M81.6175 28C81.3073 28 80.9972 27.8474 80.8421 27.5423L76.5 21.5932L72.0028 27.5423C71.6926 27.9999 71.0723 28.1525 70.6071 27.6949C70.1418 27.3898 69.9868 26.7796 70.452 26.322L74.7942 20.3729L67.6606 18.0848C67.1954 17.9322 66.8853 17.322 67.0403 16.8644C67.1954 16.4068 67.8157 16.1017 68.2809 16.2543L75.4144 18.5424V11.0678C75.4144 10.4576 75.8797 10 76.5 10C77.1203 10 77.5855 10.4576 77.5855 11.0678V18.5424L84.719 16.2543C85.1843 16.1017 85.8046 16.4068 85.9597 16.8644C86.1147 17.322 85.8045 17.9322 85.3393 18.0848L78.2058 20.3729L82.548 26.322C82.8581 26.7796 82.703 27.3898 82.3929 27.6949C81.9277 28 81.7726 28 81.6175 28Z" fill="#B93839"/>
<path d="M56.4624 28C56.1523 28 55.8421 27.8474 55.6871 27.5423L51.3449 21.5932L47.0028 27.5423C46.6926 27.9999 46.0723 28.1525 45.6071 27.6949C45.1419 27.3898 44.9868 26.7796 45.452 26.322L49.7942 20.3729L42.6606 18.0848C42.1954 17.9322 41.8853 17.322 42.0403 16.8644C42.1954 16.4068 42.8157 16.1017 43.2809 16.2543L50.4145 18.5424V11.0678C50.4145 10.4576 50.8797 10 51.5 10C52.1203 10 52.5855 10.4576 52.5855 11.0678V18.5424L59.7191 16.2543C60.1843 16.1017 60.8046 16.4068 60.9597 16.8644C61.1147 17.322 60.8046 17.9322 60.3394 18.0848L53.2058 20.3729L57.548 26.322C57.8582 26.7796 57.7031 27.3898 57.3929 27.6949C56.7726 28 56.6175 28 56.4624 28Z" fill="#B93839"/>
<path d="M108.462 28C108.152 28 107.842 27.8474 107.687 27.5423L103.345 21.5932L99.0028 27.5423C98.6926 27.9999 98.0723 28.1525 97.6071 27.6949C97.1418 27.3898 96.9868 26.7796 97.452 26.322L101.794 20.3729L94.6606 18.0848C94.1954 17.9322 93.8853 17.322 94.0403 16.8644C94.1954 16.4068 94.8157 16.1017 95.2809 16.2543L102.414 18.5424V11.0678C102.414 10.4576 102.88 10 103.5 10C104.12 10 104.586 10.4576 104.586 11.0678V18.5424L111.719 16.2543C112.184 16.1017 112.805 16.4068 112.96 16.8644C113.115 17.322 112.805 17.9322 112.339 18.0848L105.206 20.3729L109.548 26.322C109.858 26.7796 109.703 27.3898 109.393 27.6949C108.773 28 108.617 28 108.462 28Z" fill="#B93839"/>
<path d="M81.6175 81C81.3073 81 80.9972 80.8474 80.8421 80.5423L76.5 74.5932L72.0028 80.5423C71.6926 80.9999 71.0723 81.1525 70.6071 80.6949C70.1418 80.3898 69.9868 79.7796 70.452 79.322L74.7942 73.3729L67.6606 71.0848C67.1954 70.9322 66.8853 70.322 67.0403 69.8644C67.1954 69.4068 67.8157 69.1017 68.2809 69.2543L75.4144 71.5424V64.0678C75.4144 63.4576 75.8797 63 76.5 63C77.1203 63 77.5855 63.4576 77.5855 64.0678V71.5424L84.719 69.2543C85.1843 69.1017 85.8046 69.4068 85.9597 69.8644C86.1147 70.322 85.8045 70.9322 85.3393 71.0848L78.2058 73.3729L82.548 79.322C82.8581 79.7796 82.703 80.3898 82.3929 80.6949C81.9277 81 81.7726 81 81.6175 81Z" fill="#B93839"/>
<path d="M56.4624 81C56.1523 81 55.8421 80.8474 55.6871 80.5423L51.3449 74.5932L47.0028 80.5423C46.6926 80.9999 46.0723 81.1525 45.6071 80.6949C45.1419 80.3898 44.9868 79.7796 45.452 79.322L49.7942 73.3729L42.6606 71.0848C42.1954 70.9322 41.8853 70.322 42.0403 69.8644C42.1954 69.4068 42.8157 69.1017 43.2809 69.2543L50.4145 71.5424V64.0678C50.4145 63.4576 50.8797 63 51.5 63C52.1203 63 52.5855 63.4576 52.5855 64.0678V71.5424L59.7191 69.2543C60.1843 69.1017 60.8046 69.4068 60.9597 69.8644C61.1147 70.322 60.8046 70.9322 60.3394 71.0848L53.2058 73.3729L57.548 79.322C57.8582 79.7796 57.7031 80.3898 57.3929 80.6949C56.7726 81 56.6175 81 56.4624 81Z" fill="#B93839"/>
<path d="M108.462 81C108.152 81 107.842 80.8474 107.687 80.5423L103.345 74.5932L99.0028 80.5423C98.6926 80.9999 98.0723 81.1525 97.6071 80.6949C97.1418 80.3898 96.9868 79.7796 97.452 79.322L101.794 73.3729L94.6606 71.0848C94.1954 70.9322 93.8853 70.322 94.0403 69.8644C94.1954 69.4068 94.8157 69.1017 95.2809 69.2543L102.414 71.5424V64.0678C102.414 63.4576 102.88 63 103.5 63C104.12 63 104.586 63.4576 104.586 64.0678V71.5424L111.719 69.2543C112.184 69.1017 112.805 69.4068 112.96 69.8644C113.115 70.322 112.805 70.9322 112.339 71.0848L105.206 73.3729L109.548 79.322C109.858 79.7796 109.703 80.3898 109.393 80.6949C108.773 81 108.617 81 108.462 81Z" fill="#B93839"/>
</svg>
