<svg width="115" height="287" viewBox="0 0 115 287" fill="none" xmlns="http://www.w3.org/2000/svg">
<g clip-path="url(#clip0_590_30536)">
<path d="M126.063 260.314L123.103 259.832L126.063 260.314ZM123.777 270.411L120.915 269.514L123.777 270.411ZM121.365 276.443L120.806 279.391L122.849 279.778L123.929 278L121.365 276.443ZM105.617 273.459L103.038 271.926L100.848 275.609L105.058 276.407L105.617 273.459ZM108.41 267.299L111.227 268.332L111.237 268.304L111.247 268.276L108.41 267.299ZM110.697 258.79L113.635 259.394L113.639 259.375L113.643 259.356L110.697 258.79ZM109.236 238.216L111.765 236.603L109.236 238.216ZM95.52 236.565L97.3941 238.908L97.4086 238.896L97.4229 238.885L95.52 236.565ZM90.567 242.979L93.1858 244.442L93.1904 244.434L93.1948 244.426L90.567 242.979ZM84.852 254.218L87.5525 255.525L87.5561 255.518L87.5597 255.51L84.852 254.218ZM78.0575 265.331L75.6645 263.522L78.0575 265.331ZM68.6595 273.776L67.1293 271.196L67.1293 271.196L68.6595 273.776ZM44.5295 274.475L43.1051 277.115L43.1114 277.119L43.1177 277.122L44.5295 274.475ZM36.6555 267.363L39.1408 265.683L39.1328 265.671L39.1246 265.659L36.6555 267.363ZM32.0835 256.949L29.1694 257.662L29.1712 257.669L32.0835 256.949ZM32.4645 228.12L35.3435 228.963L35.3435 228.963L32.4645 228.12ZM35.8935 219.357L36.5456 216.429L34.4993 215.973L33.3679 217.738L35.8935 219.357ZM51.0065 222.722L53.4372 224.481L56.1103 220.786L51.6586 219.794L51.0065 222.722ZM47.133 230.977L49.9756 231.936L49.9808 231.921L49.9858 231.906L47.133 230.977ZM46.4345 250.916L43.5779 251.833L43.5804 251.841L43.583 251.849L46.4345 250.916ZM49.6095 256.06L51.6241 253.837L51.6071 253.822L51.5898 253.807L49.6095 256.06ZM60.722 256.187L62.4004 258.674L62.4364 258.649L62.4716 258.624L60.722 256.187ZM65.548 250.599L68.1015 252.174L68.1111 252.158L68.1205 252.142L65.548 250.599ZM70.8185 240.693L73.5129 242.012L73.5227 241.992L73.5322 241.972L70.8185 240.693ZM76.2795 230.469L78.8428 232.028L78.8505 232.016L78.8581 232.003L76.2795 230.469ZM82.439 222.214L80.2601 220.152L80.2601 220.152L82.439 222.214ZM90.1225 216.69L91.3669 219.42L90.1225 216.69ZM114.633 218.722L116.292 216.222L116.286 216.218L116.279 216.214L114.633 218.722ZM123.841 230.215L121.079 231.386L121.082 231.394L123.841 230.215ZM124.016 247.932C124.016 252.147 123.709 256.112 123.103 259.832L129.024 260.797C129.688 256.727 130.016 252.437 130.016 247.932L124.016 247.932ZM123.103 259.832C122.484 263.629 121.75 266.849 120.915 269.514L126.64 271.308C127.583 268.301 128.373 264.79 129.024 260.797L123.103 259.832ZM120.915 269.514C120.035 272.32 119.319 274.033 118.8 274.887L123.929 278C124.85 276.484 125.742 274.175 126.64 271.308L120.915 269.514ZM121.923 273.496L106.175 270.511L105.058 276.407L120.806 279.391L121.923 273.496ZM108.195 274.992C109.255 273.21 110.26 270.971 111.227 268.332L105.594 266.267C104.699 268.708 103.841 270.575 103.038 271.926L108.195 274.992ZM111.247 268.276C112.184 265.555 112.978 262.592 113.635 259.394L107.758 258.187C107.145 261.17 106.415 263.88 105.574 266.323L111.247 268.276ZM113.643 259.356C114.271 256.08 114.586 252.779 114.586 249.456L108.586 249.456C108.586 252.398 108.307 255.321 107.75 258.225L113.643 259.356ZM114.586 249.456C114.586 244.214 113.79 239.777 111.765 236.603L106.707 239.83C107.815 241.567 108.586 244.623 108.586 249.456L114.586 249.456ZM111.765 236.603C109.535 233.108 105.947 231.533 101.679 231.533L101.679 237.533C104.355 237.533 105.804 238.415 106.707 239.83L111.765 236.603ZM101.679 231.533C98.6397 231.533 95.8835 232.387 93.617 234.246L97.4229 238.885C98.4585 238.035 99.8086 237.533 101.679 237.533L101.679 231.533ZM93.6459 234.223C91.5251 235.92 89.6462 238.432 87.9392 241.532L93.1948 244.426C94.7051 241.684 96.1282 239.921 97.3941 238.908L93.6459 234.223ZM87.9482 241.516C86.2959 244.472 84.3601 248.282 82.1443 252.927L87.5597 255.51C89.7465 250.926 91.6207 247.243 93.1858 244.442L87.9482 241.516ZM82.1515 252.912C80.3318 256.672 78.1698 260.208 75.6645 263.522L80.4505 267.14C83.1945 263.511 85.5621 259.639 87.5525 255.525L82.1515 252.912ZM75.6645 263.522C73.2679 266.691 70.4255 269.241 67.1293 271.196L70.1897 276.357C74.1748 273.994 77.5977 270.913 80.4505 267.14L75.6645 263.522ZM67.1293 271.196C64.0177 273.041 60.308 274.015 55.896 274.015L55.896 280.015C61.2206 280.015 66.02 278.83 70.1897 276.357L67.1293 271.196ZM55.896 274.015C51.877 274.015 48.595 273.243 45.9413 271.828L43.1177 277.122C46.814 279.093 51.1097 280.015 55.896 280.015L55.896 274.015ZM45.9539 271.835C43.1591 270.327 40.8996 268.284 39.1408 265.683L34.1702 269.043C36.4753 272.453 39.4653 275.152 43.1051 277.115L45.9539 271.835ZM39.1246 265.659C37.2777 262.983 35.892 259.853 34.9958 256.229L29.1712 257.669C30.2224 261.919 31.8846 265.732 34.1864 269.067L39.1246 265.659ZM34.9975 256.236C34.0866 252.513 33.623 248.5 33.623 244.185L27.623 244.185C27.623 248.93 28.133 253.426 29.1695 257.662L34.9975 256.236ZM33.623 244.185C33.623 237.826 34.2251 232.781 35.3435 228.963L29.5855 227.277C28.2485 231.841 27.623 237.507 27.623 244.185L33.623 244.185ZM35.3435 228.963C36.5646 224.795 37.6112 222.236 38.4191 220.976L33.3679 217.738C32.0592 219.78 30.8198 223.063 29.5855 227.277L35.3435 228.963ZM35.2414 222.285L50.3544 225.651L51.6586 219.794L36.5456 216.429L35.2414 222.285ZM48.5758 220.964C46.8858 223.3 45.4761 226.373 44.2801 230.049L49.9858 231.906C51.0758 228.555 52.2485 226.124 53.4372 224.481L48.5758 220.964ZM44.2904 230.019C42.9807 233.901 42.355 238.256 42.355 243.042L48.355 243.042C48.355 238.769 48.9146 235.081 49.9756 231.936L44.2904 230.019ZM42.355 243.042C42.355 246.278 42.7412 249.224 43.5779 251.833L49.2911 250C48.6885 248.121 48.355 245.818 48.355 243.042L42.355 243.042ZM43.583 251.849C44.429 254.436 45.7408 256.654 47.6291 258.313L51.5898 253.807C50.6842 253.011 49.8793 251.799 49.286 249.984L43.583 251.849ZM47.5949 258.283C49.5521 260.057 51.963 260.901 54.626 260.901L54.626 254.901C53.3096 254.901 52.3762 254.519 51.6241 253.837L47.5949 258.283ZM54.626 260.901C57.4963 260.901 60.1355 260.202 62.4004 258.674L59.0436 253.7C57.9218 254.458 56.497 254.901 54.626 254.901L54.626 260.901ZM62.4716 258.624C64.5589 257.125 66.4159 254.907 68.1015 252.174L62.9945 249.024C61.5474 251.371 60.1871 252.878 58.9724 253.75L62.4716 258.624ZM68.1205 252.142C69.7047 249.502 71.5031 246.117 73.5129 242.012L68.1241 239.374C66.1546 243.397 64.4393 246.616 62.9755 249.056L68.1205 252.142ZM73.5322 241.972C75.2276 238.374 76.9985 235.061 78.8428 232.028L73.7162 228.911C71.7505 232.143 69.8807 235.646 68.1047 239.414L73.5322 241.972ZM78.8581 232.003C80.6204 229.039 82.5431 226.469 84.6179 224.277L80.2601 220.152C77.8476 222.701 75.6639 225.635 73.7009 228.936L78.8581 232.003ZM84.6179 224.277C86.6046 222.178 88.851 220.567 91.3669 219.42L88.8781 213.96C85.6366 215.438 82.7608 217.51 80.2601 220.152L84.6179 224.277ZM91.3669 219.42C93.7917 218.314 96.6571 217.721 100.028 217.721L100.028 211.721C95.9492 211.721 92.2107 212.441 88.8781 213.96L91.3669 219.42ZM100.028 217.721C105.216 217.721 109.49 218.935 112.988 221.23L116.279 216.214C111.649 213.175 106.186 211.721 100.028 211.721L100.028 217.721ZM112.975 221.222C116.447 223.524 119.162 226.863 121.079 231.386L126.603 229.045C124.286 223.577 120.863 219.254 116.292 216.222L112.975 221.222ZM121.082 231.394C123.003 235.888 124.016 241.373 124.016 247.932L130.016 247.932C130.016 240.775 128.913 234.449 126.6 229.037L121.082 231.394ZM126 199.105L126 202.105L129 202.105L129 199.105L126 199.105ZM31.639 199.105L28.639 199.105L28.639 202.105L31.639 202.105L31.639 199.105ZM31.639 141.511L31.639 138.511L28.639 138.511L28.639 141.511L31.639 141.511ZM46.625 141.511L49.625 141.511L49.625 138.511L46.625 138.511L46.625 141.511ZM46.625 179.293L43.625 179.293L43.625 182.293L46.625 182.293L46.625 179.293ZM70.3105 179.293L70.3105 182.293L73.3105 182.293L73.3105 179.293L70.3105 179.293ZM70.3105 150.655L70.3105 147.655L67.3105 147.655L67.3105 150.655L70.3105 150.655ZM84.979 150.655L87.979 150.655L87.979 147.655L84.979 147.655L84.979 150.655ZM84.979 179.293L81.979 179.293L81.979 182.293L84.979 182.293L84.979 179.293ZM110.696 179.293L110.696 182.293L113.696 182.293L113.696 179.293L110.696 179.293ZM110.696 137.51L110.696 134.51L107.696 134.51L107.696 137.51L110.696 137.51ZM126 137.51L129 137.51L129 134.51L126 134.51L126 137.51ZM126 196.105L31.639 196.105L31.639 202.105L126 202.105L126 196.105ZM34.639 199.105L34.639 141.511L28.639 141.511L28.639 199.105L34.639 199.105ZM31.639 144.511L46.625 144.511L46.625 138.511L31.639 138.511L31.639 144.511ZM43.625 141.511L43.625 179.293L49.625 179.293L49.625 141.511L43.625 141.511ZM46.625 182.293L70.3105 182.293L70.3105 176.293L46.625 176.293L46.625 182.293ZM73.3105 179.293L73.3105 150.655L67.3105 150.655L67.3105 179.293L73.3105 179.293ZM70.3105 153.655L84.979 153.655L84.979 147.655L70.3105 147.655L70.3105 153.655ZM81.979 150.655L81.979 179.293L87.979 179.293L87.979 150.655L81.979 150.655ZM84.979 182.293L110.696 182.293L110.696 176.293L84.979 176.293L84.979 182.293ZM113.696 179.293L113.696 137.51L107.696 137.51L107.696 179.293L113.696 179.293ZM110.696 140.51L126 140.51L126 134.51L110.696 134.51L110.696 140.51ZM123 137.51L123 199.105L129 199.105L129 137.51L123 137.51ZM127.016 87.027L130.015 86.9709L130.015 86.9664L127.016 87.027ZM121.237 110.395L123.783 111.982L123.791 111.97L121.237 110.395ZM104.092 125.254L105.34 127.982L105.346 127.98L104.092 125.254ZM78.248 130.08L78.1896 133.079L78.1963 133.08L78.248 130.08ZM51.5145 123.857L52.9943 121.247L52.9875 121.244L51.5145 123.857ZM35.957 107.918L33.2805 109.274L33.2805 109.274L35.957 107.918ZM30.623 85.1855L27.6236 85.244L27.6236 85.2455L30.623 85.1855ZM36.2745 62.7065L38.8194 64.2949L38.8257 64.285L38.8318 64.2749L36.2745 62.7065ZM53.0385 48.165L54.2906 50.8912L54.3002 50.8868L54.3098 50.8823L53.0385 48.165ZM78.6925 43.4025L78.6281 46.4018L78.6341 46.4019L78.6925 43.4025ZM105.68 49.3715L107.091 46.7239L107.084 46.7205L105.68 49.3715ZM121.555 64.7385L124.199 63.3213L124.196 63.3146L124.192 63.3079L121.555 64.7385ZM104.092 69.8185L102.295 72.2207L104.092 69.8185ZM61.4205 66.072L62.3544 68.9229L62.3655 68.9193L62.3765 68.9156L61.4205 66.072ZM49.8 73.3745L52.0487 75.3603L52.0559 75.352L52.0632 75.3437L49.8 73.3745ZM48.784 97.7585L46.2089 99.2976L46.2128 99.3042L46.2168 99.3107L48.784 97.7585ZM59.452 106.521L58.2248 109.259L58.2248 109.259L59.452 106.521ZM107.966 99.473L110.222 101.45L110.229 101.443L110.236 101.435L107.966 99.473ZM124.017 87.083C124.177 95.674 122.352 102.874 118.684 108.82L123.791 111.97C128.166 104.877 130.194 96.4986 130.015 86.9709L124.017 87.083ZM118.692 108.808C114.956 114.801 109.703 119.372 102.839 122.528L105.346 127.98C113.214 124.362 119.391 119.027 123.783 111.982L118.692 108.808ZM102.845 122.526C95.9195 125.692 87.7641 127.244 78.2997 127.08L78.1963 133.08C88.3746 133.255 97.4489 131.59 105.34 127.982L102.845 122.526ZM78.3063 127.081C67.7526 126.875 59.3739 124.865 52.9943 121.247L50.0346 126.467C57.5404 130.723 66.9841 132.861 78.1896 133.079L78.3063 127.081ZM52.9875 121.244C46.4815 117.577 41.7333 112.685 38.6335 106.563L33.2805 109.274C36.954 116.529 42.5774 122.263 50.0414 126.47L52.9875 121.244ZM38.6335 106.563C35.4753 100.326 33.7839 93.2003 33.6224 85.1255L27.6236 85.2455C27.8008 94.104 29.6654 102.134 33.2805 109.274L38.6335 106.563ZM33.6224 85.1269C33.4625 76.9307 35.2391 70.0312 38.8194 64.2949L33.7295 61.118C29.4359 67.9971 27.4448 76.0836 27.6236 85.244L33.6224 85.1269ZM38.8318 64.2749C42.3919 58.4704 47.5066 54.0071 54.2906 50.8912L51.7863 45.4388C44.0077 49.0115 37.9464 54.2426 33.7172 61.138L38.8318 64.2749ZM54.3098 50.8823C61.0447 47.7314 69.1195 46.1977 78.6281 46.4018L78.7568 40.4031C68.5382 40.1839 59.5103 41.8252 51.7672 45.4476L54.3098 50.8823ZM78.6341 46.4019C89.2015 46.6075 97.6986 48.5382 104.276 52.0224L107.084 46.7205C99.4374 42.6694 89.9428 40.6208 78.7508 40.403L78.6341 46.4019ZM104.269 52.019C110.867 55.5351 115.709 60.2542 118.918 66.169L124.192 63.3079C120.373 56.2687 114.633 50.7431 107.091 46.724L104.269 52.019ZM118.911 66.1556C122.129 72.1594 123.855 79.1123 124.017 87.0875L130.015 86.9664C129.838 78.1777 127.924 70.2715 124.199 63.3213L118.911 66.1556ZM115.411 86.646C115.411 78.6539 112.211 72.1451 105.89 67.4163L102.295 72.2207C107.066 75.7892 109.411 80.4987 109.411 86.646L115.411 86.646ZM105.89 67.4163C99.5714 62.6897 90.1047 60.5955 78.0575 60.5955L78.0575 66.5955C89.6323 66.5955 97.5222 68.6499 102.295 72.2207L105.89 67.4163ZM78.0575 60.5955C71.6127 60.5955 65.7361 61.456 60.4645 63.2284L62.3765 68.9156C66.9262 67.3859 72.141 66.5955 78.0575 66.5955L78.0575 60.5955ZM60.4866 63.221C55.1627 64.9651 50.7926 67.6635 47.5368 71.4052L52.0632 75.3437C54.4801 72.5661 57.857 70.3962 62.3544 68.9229L60.4866 63.221ZM47.5513 71.3886C44.1255 75.2679 42.482 80.089 42.482 85.63L48.482 85.63C48.482 81.3496 49.7171 78.0004 52.0487 75.3603L47.5513 71.3886ZM42.482 85.63C42.482 90.5598 43.722 95.1368 46.2089 99.2976L51.3591 96.2193C49.4433 93.0142 48.482 89.5055 48.482 85.63L42.482 85.63ZM46.2168 99.3107C48.8084 103.597 52.9051 106.874 58.2248 109.259L60.6792 103.784C56.1775 101.766 53.1622 99.2014 51.3512 96.2062L46.2168 99.3107ZM58.2248 109.259C63.6671 111.699 70.6548 112.823 79.01 112.823L79.01 106.823C71.1092 106.823 65.0582 105.747 60.6792 103.784L58.2248 109.259ZM79.01 112.823C85.5109 112.823 91.4783 111.917 96.8782 110.056L94.9238 104.384C90.2483 105.994 84.9551 106.823 79.01 106.823L79.01 112.823ZM96.8782 110.056C102.326 108.179 106.818 105.334 110.222 101.45L105.71 97.4955C103.103 100.47 99.5516 102.789 94.9238 104.384L96.8782 110.056ZM110.236 101.435C113.732 97.3893 115.411 92.3885 115.411 86.646L109.411 86.646C109.411 91.1481 108.127 94.6986 105.696 97.5114L110.236 101.435Z" fill="white"/>
</g>
<defs>
<clipPath id="clip0_590_30536">
<rect width="115" height="287" fill="white"/>
</clipPath>
</defs>
</svg>
