<svg width="38" height="34" viewBox="0 0 38 34" fill="none" xmlns="http://www.w3.org/2000/svg">
<path d="M8.695 33.1935C7.367 32.6955 6.0805 31.7687 4.8355 30.413C3.61817 29.0573 2.62217 27.342 1.8475 25.267C1.1005 23.192 0.727 20.8403 0.727 18.212C0.727 14.8367 1.225 11.9178 2.221 9.4555C3.24467 6.99317 4.40667 5.00116 5.707 3.4795C7.035 1.93016 8.14167 0.851164 9.027 0.242498L14.3805 3.5625V4.766C13.7718 5.37466 13.2462 6.24616 12.8035 7.3805C12.3885 8.48716 12.0565 9.73216 11.8075 11.1155C11.5585 12.4988 11.434 13.8822 11.434 15.2655C11.434 17.6448 11.8767 19.6645 12.762 21.3245C13.6473 22.9845 14.5327 24.0497 15.418 24.52V27.4665L8.695 33.1935ZM30.8145 33.1935C29.4865 32.6955 28.2 31.7687 26.955 30.413C25.7377 29.0573 24.7417 27.342 23.967 25.267C23.22 23.192 22.8465 20.8403 22.8465 18.212C22.8465 14.8367 23.3445 11.9178 24.3405 9.4555C25.3642 6.99317 26.5262 5.00116 27.8265 3.4795C29.1545 1.93016 30.2612 0.851164 31.1465 0.242498L36.5 3.5625V4.766C35.8913 5.37466 35.3657 6.24616 34.923 7.3805C34.508 8.48716 34.176 9.73216 33.927 11.1155C33.678 12.4988 33.5535 13.8822 33.5535 15.2655C33.5535 17.6448 33.9962 19.6645 34.8815 21.3245C35.7668 22.9845 36.6522 24.0497 37.5375 24.52V27.4665L30.8145 33.1935Z" fill="#B93839"/>
</svg>
